<svg xmlns="http://www.w3.org/2000/svg" version="1.1" xmlns:xlink="http://www.w3.org/1999/xlink" xmlns:svgjs="http://svgjs.dev/svgjs" viewBox="0 0 23.438051892291764 3.7405427212175026"><g transform="matrix(1,0,0,1,5.39030942348795,0.7674092981087515)"><g><path d=" M 0.3375 0.008999999999999897 L 0.6645 0.008999999999999897 L 1.0035 1.0739999999999998 L 0.7065 1.0739999999999998 L 0.642 0.8654999999999998 L 0.3585 0.8654999999999998 L 0.2955 1.0739999999999998 L -0.003 1.0739999999999998 L 0.3375 0.008999999999999897 M 0.5955 0.6704999999999999 L 0.501 0.2954999999999999 L 0.402 0.6704999999999999 L 0.5955 0.6704999999999999 M 1.10698828125 1.0739999999999998 L 1.10698828125 0.008999999999999897 L 1.51648828125 0.008999999999999897 Q 1.69348828125 0.008999999999999897 1.8127382812500001 0.08024999999999982 Q 1.9319882812500002 0.15149999999999986 1.9927382812500003 0.2722499999999999 Q 2.05348828125 0.3929999999999998 2.05348828125 0.5399999999999998 Q 2.05348828125 0.7019999999999998 1.98673828125 0.8219999999999998 Q 1.9199882812500002 0.9419999999999998 1.79923828125 1.0079999999999998 Q 1.6784882812500002 1.0739999999999998 1.51648828125 1.0739999999999998 L 1.10698828125 1.0739999999999998 M 1.7564882812500002 0.5399999999999998 Q 1.7564882812500002 0.4574999999999998 1.72798828125 0.3952499999999999 Q 1.6994882812500003 0.33299999999999985 1.64548828125 0.2984999999999999 Q 1.5914882812500002 0.2639999999999998 1.51648828125 0.2639999999999998 L 1.39948828125 0.2639999999999998 L 1.39948828125 0.8189999999999998 L 1.51648828125 0.8189999999999998 Q 1.5929882812500002 0.8189999999999998 1.64623828125 0.7829999999999999 Q 1.6994882812500003 0.7469999999999999 1.72798828125 0.6832499999999999 Q 1.7564882812500002 0.6194999999999998 1.7564882812500002 0.5399999999999998 M 2.9549934082031255 0.8189999999999998 L 2.9549934082031255 1.0739999999999998 L 2.195993408203125 1.0739999999999998 L 2.195993408203125 0.008999999999999897 L 2.941493408203125 0.008999999999999897 L 2.941493408203125 0.2639999999999998 L 2.488493408203125 0.2639999999999998 L 2.488493408203125 0.4139999999999998 L 2.875493408203125 0.4139999999999998 L 2.875493408203125 0.6509999999999998 L 2.488493408203125 0.6509999999999998 L 2.488493408203125 0.8189999999999998 L 2.9549934082031255 0.8189999999999998 M 3.3989707031250003 0.5504999999999999 L 3.3989707031250003 1.0739999999999998 L 3.1064707031250003 1.0739999999999998 L 3.1064707031250003 0.008999999999999897 L 3.3344707031250005 0.008999999999999897 L 3.7619707031250003 0.5504999999999999 L 3.7619707031250003 0.008999999999999897 L 4.054470703125 0.008999999999999897 L 4.054470703125 1.0739999999999998 L 3.8219707031250003 1.0739999999999998 L 3.3989707031250003 0.5504999999999999 M 5.082013183593751 0.2639999999999998 L 4.776013183593751 0.2639999999999998 L 4.776013183593751 1.0739999999999998 L 4.48351318359375 1.0739999999999998 L 4.48351318359375 0.2639999999999998 L 4.17601318359375 0.2639999999999998 L 4.17601318359375 0.008999999999999897 L 5.082013183593751 0.008999999999999897 L 5.082013183593751 0.2639999999999998 M 5.96254833984375 0.8189999999999998 L 5.96254833984375 1.0739999999999998 L 5.20354833984375 1.0739999999999998 L 5.20354833984375 0.008999999999999897 L 5.94904833984375 0.008999999999999897 L 5.94904833984375 0.2639999999999998 L 5.4960483398437505 0.2639999999999998 L 5.4960483398437505 0.4139999999999998 L 5.88304833984375 0.4139999999999998 L 5.88304833984375 0.6509999999999998 L 5.4960483398437505 0.6509999999999998 L 5.4960483398437505 0.8189999999999998 L 5.96254833984375 0.8189999999999998 M 6.039046142578125 0.5324999999999999 Q 6.039046142578125 0.43499999999999983 6.075796142578125 0.34124999999999983 Q 6.1125461425781245 0.24749999999999983 6.1830461425781245 0.17099999999999982 Q 6.2535461425781245 0.0944999999999998 6.354796142578125 0.04874999999999985 Q 6.456046142578125 0.0029999999999998916 6.5835461425781245 0.0029999999999998916 Q 6.736546142578125 0.0029999999999998916 6.850546142578125 0.06674999999999986 Q 6.964546142578125 0.13049999999999984 7.020046142578125 0.23549999999999982 L 6.796546142578125 0.39449999999999985 Q 6.777046142578125 0.34199999999999986 6.740296142578125 0.3134999999999998 Q 6.703546142578125 0.2849999999999998 6.660796142578125 0.2737499999999998 Q 6.618046142578125 0.26249999999999984 6.577546142578125 0.26249999999999984 Q 6.514546142578125 0.26249999999999984 6.468796142578125 0.2872499999999998 Q 6.423046142578125 0.31199999999999983 6.3937961425781245 0.3524999999999998 Q 6.364546142578125 0.3929999999999998 6.350296142578125 0.4424999999999998 Q 6.336046142578125 0.4919999999999999 6.336046142578125 0.5414999999999999 Q 6.336046142578125 0.5969999999999998 6.352546142578125 0.6479999999999999 Q 6.369046142578124 0.6989999999999998 6.400546142578125 0.7387499999999998 Q 6.432046142578125 0.7784999999999999 6.477796142578125 0.8009999999999998 Q 6.523546142578125 0.8234999999999999 6.580546142578125 0.8234999999999999 Q 6.621046142578125 0.8234999999999999 6.663046142578125 0.8107499999999999 Q 6.705046142578125 0.7979999999999998 6.739546142578125 0.7694999999999999 Q 6.774046142578125 0.7409999999999999 6.7920461425781244 0.6929999999999998 L 7.030546142578125 0.8354999999999998 Q 6.999046142578125 0.9134999999999999 6.925546142578125 0.9689999999999999 Q 6.852046142578125 1.0244999999999997 6.759046142578125 1.0537499999999997 Q 6.666046142578125 1.0829999999999997 6.574546142578125 1.0829999999999997 Q 6.456046142578125 1.0829999999999997 6.357796142578125 1.03575 Q 6.259546142578125 0.9884999999999998 6.188296142578125 0.9097499999999998 Q 6.117046142578125 0.8309999999999998 6.078046142578125 0.7327499999999998 Q 6.039046142578125 0.6344999999999998 6.039046142578125 0.5324999999999999 M 8.0910146484375 0.008999999999999897 L 8.0910146484375 1.0739999999999998 L 7.7985146484375 1.0739999999999998 L 7.7985146484375 0.6569999999999998 L 7.441514648437501 0.6569999999999998 L 7.441514648437501 1.0739999999999998 L 7.1490146484375 1.0739999999999998 L 7.1490146484375 0.008999999999999897 L 7.441514648437501 0.008999999999999897 L 7.441514648437501 0.4019999999999998 L 7.7985146484375 0.4019999999999998 L 7.7985146484375 0.008999999999999897 L 8.0910146484375 0.008999999999999897 M 9.286478027343751 0.3569999999999999 Q 9.286478027343751 0.3569999999999999 9.260978027343752 0.34199999999999986 Q 9.235478027343751 0.32699999999999985 9.193478027343751 0.3082499999999998 Q 9.151478027343751 0.28949999999999987 9.101978027343751 0.27449999999999986 Q 9.052478027343751 0.25949999999999984 9.004478027343751 0.25949999999999984 Q 8.966978027343751 0.25949999999999984 8.942978027343752 0.27149999999999985 Q 8.918978027343751 0.28349999999999986 8.918978027343751 0.31199999999999983 Q 8.918978027343751 0.33899999999999986 8.942978027343752 0.3554999999999998 Q 8.966978027343751 0.3719999999999998 9.011228027343751 0.38549999999999984 Q 9.055478027343751 0.3989999999999998 9.116978027343752 0.41849999999999987 Q 9.215978027343752 0.4484999999999998 9.287978027343751 0.4874999999999998 Q 9.359978027343752 0.5264999999999999 9.398978027343752 0.5872499999999998 Q 9.437978027343751 0.6479999999999999 9.437978027343751 0.7484999999999998 Q 9.437978027343751 0.8444999999999998 9.403478027343752 0.9097499999999998 Q 9.368978027343752 0.9749999999999999 9.310478027343752 1.0139999999999998 Q 9.251978027343752 1.053 9.179978027343752 1.07025 Q 9.107978027343751 1.0875 9.032978027343752 1.0875 Q 8.956478027343751 1.0875 8.873228027343751 1.0717499999999998 Q 8.789978027343752 1.0559999999999998 8.711978027343752 1.0282499999999999 Q 8.633978027343751 1.0005 8.569478027343752 0.9629999999999999 L 8.695478027343752 0.7064999999999999 Q 8.695478027343752 0.7064999999999999 8.725478027343751 0.7244999999999998 Q 8.755478027343752 0.7424999999999998 8.804978027343752 0.7649999999999999 Q 8.854478027343752 0.7874999999999999 8.915228027343751 0.8054999999999999 Q 8.975978027343752 0.8234999999999999 9.037478027343752 0.8234999999999999 Q 9.085478027343752 0.8234999999999999 9.104228027343751 0.8107499999999999 Q 9.122978027343752 0.7979999999999998 9.122978027343752 0.7769999999999999 Q 9.122978027343752 0.7454999999999998 9.08997802734375 0.7282499999999998 Q 9.056978027343751 0.7109999999999999 9.003728027343751 0.6952499999999998 Q 8.95047802734375 0.6794999999999998 8.885978027343752 0.6584999999999999 Q 8.792978027343752 0.6269999999999998 8.732978027343751 0.5872499999999998 Q 8.672978027343751 0.5474999999999999 8.644478027343752 0.4927499999999998 Q 8.615978027343752 0.43799999999999983 8.615978027343752 0.3599999999999999 Q 8.615978027343752 0.24149999999999983 8.67147802734375 0.1619999999999998 Q 8.726978027343751 0.0824999999999998 8.817728027343751 0.04124999999999979 Q 8.908478027343751 -2.220446049250313e-16 9.013478027343751 -2.220446049250313e-16 Q 9.09147802734375 -2.220446049250313e-16 9.164228027343752 0.018749999999999822 Q 9.236978027343751 0.03749999999999987 9.300728027343752 0.06449999999999978 Q 9.364478027343752 0.0914999999999998 9.412478027343752 0.11549999999999983 L 9.286478027343751 0.3569999999999999 M 10.061984619140627 1.0829999999999997 Q 9.940484619140626 1.0829999999999997 9.841484619140628 1.0372499999999998 Q 9.742484619140628 0.9914999999999998 9.671234619140627 0.9142499999999998 Q 9.599984619140628 0.8369999999999999 9.561734619140626 0.7402499999999999 Q 9.523484619140627 0.6434999999999998 9.523484619140627 0.5399999999999998 Q 9.523484619140627 0.4334999999999999 9.563984619140626 0.3374999999999998 Q 9.604484619140628 0.24149999999999983 9.677234619140627 0.16574999999999984 Q 9.749984619140626 0.08999999999999986 9.849734619140627 0.046499999999999764 Q 9.949484619140627 0.0029999999999998916 10.067984619140628 0.0029999999999998916 Q 10.189484619140627 0.0029999999999998916 10.288484619140627 0.04874999999999985 Q 10.387484619140627 0.0944999999999998 10.457984619140626 0.17249999999999988 Q 10.528484619140627 0.25049999999999983 10.566734619140627 0.34724999999999984 Q 10.604984619140627 0.44399999999999984 10.604984619140627 0.5459999999999998 Q 10.604984619140627 0.6509999999999998 10.565234619140627 0.7469999999999999 Q 10.525484619140627 0.8429999999999999 10.452734619140628 0.9187499999999998 Q 10.379984619140627 0.9944999999999998 10.280984619140627 1.0387499999999998 Q 10.181984619140627 1.0829999999999997 10.061984619140627 1.0829999999999997 M 9.820484619140627 0.5429999999999998 Q 9.820484619140627 0.5969999999999998 9.835484619140628 0.6472499999999999 Q 9.850484619140627 0.6974999999999998 9.880484619140628 0.7372499999999998 Q 9.910484619140627 0.7769999999999999 9.956234619140627 0.8002499999999999 Q 10.001984619140627 0.8234999999999999 10.064984619140628 0.8234999999999999 Q 10.127984619140626 0.8234999999999999 10.174484619140626 0.7994999999999999 Q 10.220984619140626 0.7754999999999999 10.250234619140628 0.7342499999999998 Q 10.279484619140627 0.6929999999999998 10.293734619140627 0.6427499999999998 Q 10.307984619140628 0.5924999999999998 10.307984619140628 0.5399999999999998 Q 10.307984619140628 0.4859999999999999 10.292984619140627 0.4364999999999998 Q 10.277984619140627 0.3869999999999998 10.247984619140627 0.34724999999999984 Q 10.217984619140626 0.3074999999999998 10.171484619140628 0.2849999999999998 Q 10.124984619140626 0.26249999999999984 10.063484619140628 0.26249999999999984 Q 10.000484619140627 0.26249999999999984 9.954734619140627 0.28649999999999987 Q 9.908984619140627 0.3104999999999998 9.878984619140628 0.35024999999999984 Q 9.848984619140627 0.3899999999999998 9.834734619140628 0.4402499999999998 Q 9.820484619140627 0.4904999999999998 9.820484619140627 0.5429999999999998 M 10.744506591796878 1.0739999999999998 L 10.744506591796878 0.008999999999999897 L 11.037006591796878 0.008999999999999897 L 11.037006591796878 0.8189999999999998 L 11.520006591796879 0.8189999999999998 L 11.520006591796879 1.0739999999999998 L 10.744506591796878 1.0739999999999998 M 12.085560058593753 1.0829999999999997 Q 11.958060058593754 1.0829999999999997 11.866560058593754 1.041 Q 11.775060058593754 0.9989999999999999 11.717310058593753 0.9254999999999999 Q 11.659560058593753 0.8519999999999999 11.632560058593754 0.7567499999999998 Q 11.605560058593753 0.6614999999999998 11.605560058593753 0.5564999999999999 L 11.605560058593753 0.008999999999999897 L 11.898060058593753 0.008999999999999897 L 11.898060058593753 0.5564999999999999 Q 11.898060058593753 0.6089999999999998 11.908560058593753 0.6569999999999998 Q 11.919060058593754 0.7049999999999998 11.941560058593753 0.7424999999999998 Q 11.964060058593754 0.7799999999999998 11.999310058593753 0.8017499999999999 Q 12.034560058593753 0.8234999999999999 12.085560058593753 0.8234999999999999 Q 12.138060058593753 0.8234999999999999 12.174060058593753 0.8017499999999999 Q 12.210060058593754 0.7799999999999998 12.231810058593753 0.7417499999999999 Q 12.253560058593754 0.7034999999999998 12.264060058593753 0.6554999999999999 Q 12.274560058593753 0.6074999999999998 12.274560058593753 0.5564999999999999 L 12.274560058593753 0.008999999999999897 L 12.567060058593754 0.008999999999999897 L 12.567060058593754 0.5564999999999999 Q 12.567060058593754 0.6674999999999998 12.537810058593752 0.7634999999999998 Q 12.508560058593753 0.8594999999999998 12.450060058593753 0.9314999999999998 Q 12.391560058593754 1.0034999999999998 12.300810058593754 1.0432499999999998 Q 12.210060058593754 1.0829999999999997 12.085560058593753 1.0829999999999997 M 13.579531494140628 0.2639999999999998 L 13.273531494140629 0.2639999999999998 L 13.273531494140629 1.0739999999999998 L 12.981031494140629 1.0739999999999998 L 12.981031494140629 0.2639999999999998 L 12.67353149414063 0.2639999999999998 L 12.67353149414063 0.008999999999999897 L 13.579531494140628 0.008999999999999897 L 13.579531494140628 0.2639999999999998 M 13.70106665039063 1.0739999999999998 L 13.70106665039063 0.008999999999999897 L 13.99356665039063 0.008999999999999897 L 13.99356665039063 1.0739999999999998 L 13.70106665039063 1.0739999999999998 M 14.67159155273438 1.0829999999999997 Q 14.55009155273438 1.0829999999999997 14.45109155273438 1.0372499999999998 Q 14.35209155273438 0.9914999999999998 14.28084155273438 0.9142499999999998 Q 14.20959155273438 0.8369999999999999 14.17134155273438 0.7402499999999999 Q 14.13309155273438 0.6434999999999998 14.13309155273438 0.5399999999999998 Q 14.13309155273438 0.4334999999999999 14.17359155273438 0.3374999999999998 Q 14.21409155273438 0.24149999999999983 14.28684155273438 0.16574999999999984 Q 14.35959155273438 0.08999999999999986 14.45934155273438 0.046499999999999764 Q 14.55909155273438 0.0029999999999998916 14.67759155273438 0.0029999999999998916 Q 14.79909155273438 0.0029999999999998916 14.89809155273438 0.04874999999999985 Q 14.99709155273438 0.0944999999999998 15.06759155273438 0.17249999999999988 Q 15.13809155273438 0.25049999999999983 15.17634155273438 0.34724999999999984 Q 15.21459155273438 0.44399999999999984 15.21459155273438 0.5459999999999998 Q 15.21459155273438 0.6509999999999998 15.17484155273438 0.7469999999999999 Q 15.13509155273438 0.8429999999999999 15.062341552734381 0.9187499999999998 Q 14.98959155273438 0.9944999999999998 14.89059155273438 1.0387499999999998 Q 14.79159155273438 1.0829999999999997 14.67159155273438 1.0829999999999997 M 14.43009155273438 0.5429999999999998 Q 14.43009155273438 0.5969999999999998 14.44509155273438 0.6472499999999999 Q 14.46009155273438 0.6974999999999998 14.49009155273438 0.7372499999999998 Q 14.52009155273438 0.7769999999999999 14.56584155273438 0.8002499999999999 Q 14.61159155273438 0.8234999999999999 14.67459155273438 0.8234999999999999 Q 14.73759155273438 0.8234999999999999 14.78409155273438 0.7994999999999999 Q 14.83059155273438 0.7754999999999999 14.85984155273438 0.7342499999999998 Q 14.88909155273438 0.6929999999999998 14.90334155273438 0.6427499999999998 Q 14.91759155273438 0.5924999999999998 14.91759155273438 0.5399999999999998 Q 14.91759155273438 0.4859999999999999 14.90259155273438 0.4364999999999998 Q 14.88759155273438 0.3869999999999998 14.85759155273438 0.34724999999999984 Q 14.82759155273438 0.3074999999999998 14.781091552734381 0.2849999999999998 Q 14.73459155273438 0.26249999999999984 14.67309155273438 0.26249999999999984 Q 14.61009155273438 0.26249999999999984 14.56434155273438 0.28649999999999987 Q 14.51859155273438 0.3104999999999998 14.48859155273438 0.35024999999999984 Q 14.45859155273438 0.3899999999999998 14.44434155273438 0.4402499999999998 Q 14.43009155273438 0.4904999999999998 14.43009155273438 0.5429999999999998 M 15.64661352539063 0.5504999999999999 L 15.64661352539063 1.0739999999999998 L 15.35411352539063 1.0739999999999998 L 15.35411352539063 0.008999999999999897 L 15.58211352539063 0.008999999999999897 L 16.00961352539063 0.5504999999999999 L 16.00961352539063 0.008999999999999897 L 16.30211352539063 0.008999999999999897 L 16.30211352539063 1.0739999999999998 L 16.06961352539063 1.0739999999999998 L 15.64661352539063 0.5504999999999999 M 17.14515600585938 0.3569999999999999 Q 17.14515600585938 0.3569999999999999 17.11965600585938 0.34199999999999986 Q 17.094156005859382 0.32699999999999985 17.05215600585938 0.3082499999999998 Q 17.010156005859383 0.28949999999999987 16.96065600585938 0.27449999999999986 Q 16.911156005859382 0.25949999999999984 16.86315600585938 0.25949999999999984 Q 16.825656005859383 0.25949999999999984 16.801656005859382 0.27149999999999985 Q 16.77765600585938 0.28349999999999986 16.77765600585938 0.31199999999999983 Q 16.77765600585938 0.33899999999999986 16.801656005859382 0.3554999999999998 Q 16.825656005859383 0.3719999999999998 16.86990600585938 0.38549999999999984 Q 16.914156005859383 0.3989999999999998 16.97565600585938 0.41849999999999987 Q 17.07465600585938 0.4484999999999998 17.14665600585938 0.4874999999999998 Q 17.21865600585938 0.5264999999999999 17.25765600585938 0.5872499999999998 Q 17.296656005859383 0.6479999999999999 17.296656005859383 0.7484999999999998 Q 17.296656005859383 0.8444999999999998 17.26215600585938 0.9097499999999998 Q 17.22765600585938 0.9749999999999999 17.16915600585938 1.0139999999999998 Q 17.110656005859383 1.053 17.03865600585938 1.07025 Q 16.96665600585938 1.0875 16.89165600585938 1.0875 Q 16.815156005859382 1.0875 16.731906005859383 1.0717499999999998 Q 16.64865600585938 1.0559999999999998 16.57065600585938 1.0282499999999999 Q 16.49265600585938 1.0005 16.428156005859382 0.9629999999999999 L 16.55415600585938 0.7064999999999999 Q 16.55415600585938 0.7064999999999999 16.58415600585938 0.7244999999999998 Q 16.614156005859382 0.7424999999999998 16.66365600585938 0.7649999999999999 Q 16.713156005859382 0.7874999999999999 16.77390600585938 0.8054999999999999 Q 16.83465600585938 0.8234999999999999 16.896156005859382 0.8234999999999999 Q 16.94415600585938 0.8234999999999999 16.96290600585938 0.8107499999999999 Q 16.98165600585938 0.7979999999999998 16.98165600585938 0.7769999999999999 Q 16.98165600585938 0.7454999999999998 16.94865600585938 0.7282499999999998 Q 16.915656005859383 0.7109999999999999 16.86240600585938 0.6952499999999998 Q 16.809156005859382 0.6794999999999998 16.74465600585938 0.6584999999999999 Q 16.65165600585938 0.6269999999999998 16.59165600585938 0.5872499999999998 Q 16.531656005859382 0.5474999999999999 16.50315600585938 0.4927499999999998 Q 16.47465600585938 0.43799999999999983 16.47465600585938 0.3599999999999999 Q 16.47465600585938 0.24149999999999983 16.530156005859382 0.1619999999999998 Q 16.58565600585938 0.0824999999999998 16.67640600585938 0.04124999999999979 Q 16.76715600585938 -2.220446049250313e-16 16.87215600585938 -2.220446049250313e-16 Q 16.95015600585938 -2.220446049250313e-16 17.02290600585938 0.018749999999999822 Q 17.095656005859382 0.03749999999999987 17.15940600585938 0.06449999999999978 Q 17.22315600585938 0.0914999999999998 17.271156005859382 0.11549999999999983 L 17.14515600585938 0.3569999999999999" fill="#a6a6a6" fill-rule="nonzero"></path></g><g><path d=" M 0.07442625 2.2057241249999997 L 0.07442625 1.6119866249999997 L 0.13296375 1.6119866249999997 L 0.13296375 2.2057241249999997 L 0.07442625 2.2057241249999997 M 0.8161681585693359 1.6119866249999997 L 0.8161681585693359 2.2057241249999997 L 0.7584669085693359 2.2057241249999997 L 0.7584669085693359 1.9280891249999996 L 0.4064056585693359 1.9280891249999996 L 0.4064056585693359 2.2057241249999997 L 0.34786815856933595 2.2057241249999997 L 0.34786815856933595 1.6119866249999997 L 0.4064056585693359 1.6119866249999997 L 0.4064056585693359 1.8762416249999996 L 0.7584669085693359 1.8762416249999996 L 0.7584669085693359 1.6119866249999997 L 0.8161681585693359 1.6119866249999997 M 1.0310644006347656 2.2057241249999997 L 1.0310644006347656 1.6119866249999997 L 1.2819394006347655 1.6119866249999997 Q 1.3204069006347656 1.6119866249999997 1.3521844006347656 1.6278753749999997 Q 1.3839619006347657 1.6437641249999997 1.4077950256347656 1.6709422499999997 Q 1.4316281506347655 1.6981203749999998 1.4445900256347655 1.7311522499999996 Q 1.4575519006347655 1.7641841249999997 1.4575519006347655 1.7984703749999997 Q 1.4575519006347655 1.8411191249999996 1.4412450256347655 1.8787503749999996 Q 1.4249381506347656 1.9163816249999996 1.3952512756347655 1.9423053749999997 Q 1.3655644006347656 1.9682291249999997 1.3254244006347655 1.9765916249999997 L 1.4709319006347656 2.2057241249999997 L 1.4048681506347656 2.2057241249999997 L 1.2652144006347656 1.9866266249999998 L 1.0896019006347655 1.9866266249999998 L 1.0896019006347655 2.2057241249999997 L 1.0310644006347656 2.2057241249999997 M 1.0896019006347655 1.9347791249999997 L 1.2836119006347655 1.9347791249999997 Q 1.3187344006347654 1.9347791249999997 1.3446581506347655 1.9155453749999998 Q 1.3705819006347655 1.8963116249999996 1.3847981506347655 1.8649522499999998 Q 1.3990144006347656 1.8335928749999997 1.3990144006347656 1.7984703749999997 Q 1.3990144006347656 1.7625116249999997 1.3827075256347654 1.7319884999999997 Q 1.3664006506347655 1.7014653749999997 1.3392225256347654 1.6826497499999997 Q 1.3120444006347656 1.6638341249999997 1.2785944006347656 1.6638341249999997 L 1.0896019006347655 1.6638341249999997 L 1.0896019006347655 1.9347791249999997 M 2.04210330871582 2.1538766249999997 L 2.04210330871582 2.2057241249999997 L 1.64321205871582 2.2057241249999997 L 1.64321205871582 1.6119866249999997 L 2.0345770587158203 1.6119866249999997 L 2.0345770587158203 1.6638341249999997 L 1.7017495587158202 1.6638341249999997 L 1.7017495587158202 1.8779141249999998 L 1.9919283087158202 1.8779141249999998 L 1.9919283087158202 1.9272528749999998 L 1.7017495587158202 1.9272528749999998 L 1.7017495587158202 2.1538766249999997 L 2.04210330871582 2.1538766249999997 M 2.466932600097656 1.6119866249999997 L 2.6793401000976558 2.1329703749999998 L 2.8909113500976558 1.6119866249999997 L 2.9519576000976557 1.6119866249999997 L 2.7061001000976557 2.2057241249999997 L 2.652580100097656 2.2057241249999997 L 2.405886350097656 1.6119866249999997 L 2.466932600097656 1.6119866249999997 M 3.1033323248291014 2.2057241249999997 L 3.1033323248291014 1.6119866249999997 L 3.1618698248291013 1.6119866249999997 L 3.1618698248291013 2.2057241249999997 L 3.1033323248291014 2.2057241249999997 M 3.723817983398437 1.7232078749999997 Q 3.711274233398437 1.7089916249999997 3.694549233398437 1.6977022499999999 Q 3.6778242333984372 1.6864128749999998 3.656917983398437 1.6780503749999998 Q 3.636011733398437 1.6696878749999997 3.612178608398437 1.6646703749999996 Q 3.588345483398437 1.6596528749999997 3.561585483398437 1.6596528749999997 Q 3.483814233398437 1.6596528749999997 3.447437358398437 1.6893397499999998 Q 3.411060483398437 1.7190266249999997 3.411060483398437 1.7700378749999996 Q 3.411060483398437 1.8051603749999998 3.428203608398437 1.8252303749999998 Q 3.445346733398437 1.8453003749999997 3.482141733398437 1.8578441249999997 Q 3.518936733398437 1.8703878749999996 3.575801733398437 1.8837678749999998 Q 3.639356733398437 1.8971478749999997 3.685350483398437 1.9155453749999998 Q 3.731344233398437 1.9339428749999996 3.756431733398437 1.9653022499999997 Q 3.781519233398437 1.9966616249999998 3.781519233398437 2.0501816249999996 Q 3.781519233398437 2.0911578749999995 3.765630483398437 2.1212628749999998 Q 3.749741733398437 2.1513678749999996 3.721309233398437 2.1714378749999996 Q 3.692876733398437 2.1915078749999997 3.653572983398437 2.2011247499999995 Q 3.614269233398437 2.210741625 3.567439233398437 2.210741625 Q 3.521445483398437 2.210741625 3.479214858398437 2.2011247499999995 Q 3.436984233398437 2.1915078749999997 3.399352983398437 2.17269225 Q 3.361721733398437 2.1538766249999997 3.329107983398437 2.1246078749999997 L 3.358376733398437 2.076941625 Q 3.374265483398437 2.0936666249999996 3.396426108398437 2.1083009999999995 Q 3.418586733398437 2.1229353749999995 3.4457648583984373 2.1346428749999995 Q 3.472942983398437 2.146350375 3.504302358398437 2.15262225 Q 3.5356617333984373 2.1588941249999998 3.569111733398437 2.1588941249999998 Q 3.640192983398437 2.1588941249999998 3.679914858398437 2.1329703749999998 Q 3.719636733398437 2.1070466249999997 3.719636733398437 2.0560353749999996 Q 3.719636733398437 2.019240375 3.699566733398437 1.9970797499999997 Q 3.679496733398437 1.9749191249999998 3.639356733398437 1.9607028749999997 Q 3.5992167333984373 1.9464866249999997 3.540679233398437 1.9331066249999997 Q 3.478796733398437 1.9188903749999997 3.436147983398437 1.9013291249999997 Q 3.393499233398437 1.8837678749999998 3.372174858398437 1.8549172499999997 Q 3.350850483398437 1.8260666249999997 3.350850483398437 1.7784003749999997 Q 3.350850483398437 1.7232078749999997 3.378028608398437 1.6851584999999996 Q 3.405206733398437 1.6471091249999996 3.452872983398437 1.6274572499999997 Q 3.500539233398437 1.6078053749999999 3.562421733398437 1.6078053749999999 Q 3.601725483398437 1.6078053749999999 3.635593608398437 1.6157497499999998 Q 3.669461733398437 1.6236941249999997 3.698312358398437 1.6387466249999996 Q 3.727162983398437 1.6537991249999997 3.752250483398437 1.6763778749999996 L 3.723817983398437 1.7232078749999997 M 3.9504372418212887 2.2057241249999997 L 3.9504372418212887 1.6119866249999997 L 4.008974741821288 1.6119866249999997 L 4.008974741821288 2.2057241249999997 L 3.9504372418212887 2.2057241249999997 M 4.463046650390624 2.2099053749999995 Q 4.400327900390624 2.2099053749999995 4.349316650390625 2.184817875 Q 4.298305400390625 2.1597303749999996 4.261510400390624 2.1166634999999996 Q 4.224715400390624 2.0735966249999995 4.204645400390625 2.0196585 Q 4.184575400390624 1.9657203749999996 4.184575400390624 1.9088553749999997 Q 4.184575400390624 1.8494816249999997 4.205481650390625 1.7955434999999997 Q 4.226387900390624 1.7416053749999998 4.264437275390624 1.6993747499999996 Q 4.302486650390624 1.6571441249999999 4.353497900390624 1.6324747499999996 Q 4.404509150390624 1.6078053749999999 4.463882900390624 1.6078053749999999 Q 4.526601650390624 1.6078053749999999 4.5776129003906245 1.6337291249999997 Q 4.628624150390625 1.6596528749999997 4.665001025390625 1.7031378749999997 Q 4.701377900390624 1.7466228749999997 4.721447900390625 1.8001428749999997 Q 4.741517900390624 1.8536628749999997 4.741517900390624 1.9096916249999998 Q 4.741517900390624 1.9690653749999998 4.720611650390625 2.0230034999999997 Q 4.6997054003906245 2.076941625 4.662074150390625 2.1191722499999996 Q 4.6244429003906244 2.161402875 4.573431650390624 2.1856541249999997 Q 4.522420400390624 2.2099053749999995 4.463046650390624 2.2099053749999995 M 4.243112900390624 1.9088553749999997 Q 4.243112900390624 1.9573578749999998 4.2590016503906245 2.00209725 Q 4.274890400390625 2.0468366249999996 4.304159150390625 2.0815409999999996 Q 4.333427900390625 2.1162453749999997 4.373986025390624 2.1367334999999996 Q 4.414544150390625 2.1572216249999996 4.463046650390624 2.1572216249999996 Q 4.5140579003906245 2.1572216249999996 4.554616025390624 2.1358972499999997 Q 4.5951741503906245 2.114572875 4.624024775390624 2.0790322499999996 Q 4.6528754003906245 2.0434916249999997 4.667927900390625 1.9991703749999998 Q 4.682980400390624 1.9548491249999997 4.682980400390624 1.9088553749999997 Q 4.682980400390624 1.8603528749999998 4.667091650390624 1.8160316249999997 Q 4.651202900390625 1.7717103749999996 4.6215160253906244 1.7365878749999997 Q 4.591829150390624 1.7014653749999997 4.551689150390624 1.6813953749999997 Q 4.511549150390625 1.6613253749999997 4.463046650390624 1.6613253749999997 Q 4.412871650390624 1.6613253749999997 4.3723135253906245 1.6822316249999996 Q 4.331755400390624 1.7031378749999997 4.302904775390624 1.7386784999999998 Q 4.274054150390624 1.7742191249999997 4.258583525390624 1.8185403749999998 Q 4.243112900390624 1.8628616249999996 4.243112900390624 1.9088553749999997 M 4.976484550781249 1.7198628749999998 L 4.976484550781249 2.2057241249999997 L 4.917947050781249 2.2057241249999997 L 4.917947050781249 1.6119866249999997 L 4.966449550781249 1.6119866249999997 L 5.35614205078125 2.1070466249999997 L 5.35614205078125 1.6128228749999998 L 5.4146795507812495 1.6128228749999998 L 5.4146795507812495 2.2057241249999997 L 5.360323300781249 2.2057241249999997 L 4.976484550781249 1.7198628749999998 M 6.150560767822265 2.2099053749999995 Q 6.080315767822264 2.2099053749999995 6.0318132678222645 2.184817875 Q 5.983310767822265 2.1597303749999996 5.954878267822265 2.11749975 Q 5.926445767822265 2.0752691249999997 5.913483892822264 2.0217491249999995 Q 5.900522017822264 1.9682291249999997 5.900522017822264 1.9113641249999997 L 5.900522017822264 1.6119866249999997 L 5.958223267822264 1.6119866249999997 L 5.958223267822264 1.9113641249999997 Q 5.958223267822264 1.9573578749999998 5.967840142822265 2.001679125 Q 5.977457017822265 2.0460003749999998 5.999199517822264 2.0811228749999997 Q 6.020942017822264 2.1162453749999997 6.057737017822265 2.1367334999999996 Q 6.094532017822265 2.1572216249999996 6.149724517822264 2.1572216249999996 Q 6.206589517822264 2.1572216249999996 6.243802642822264 2.1358972499999997 Q 6.2810157678222645 2.114572875 6.302340142822264 2.0794503749999995 Q 6.323664517822264 2.0443278749999996 6.3328632678222645 2.0004247499999996 Q 6.342062017822265 1.9565216249999997 6.342062017822265 1.9113641249999997 L 6.342062017822265 1.6119866249999997 L 6.400599517822265 1.6119866249999997 L 6.400599517822265 1.9113641249999997 Q 6.400599517822265 1.9707378749999998 6.387219517822264 2.025094125 Q 6.373839517822264 2.0794503749999995 6.344152642822264 2.120426625 Q 6.314465767822265 2.161402875 6.266799517822265 2.1856541249999997 Q 6.219133267822264 2.2099053749999995 6.150560767822265 2.2099053749999995 M 6.664858601074218 1.7198628749999998 L 6.664858601074218 2.2057241249999997 L 6.606321101074218 2.2057241249999997 L 6.606321101074218 1.6119866249999997 L 6.654823601074217 1.6119866249999997 L 7.044516101074217 2.1070466249999997 L 7.044516101074217 1.6128228749999998 L 7.103053601074217 1.6128228749999998 L 7.103053601074217 2.2057241249999997 L 7.0486973510742175 2.2057241249999997 L 6.664858601074218 1.7198628749999998 M 7.66499073486328 1.7232078749999997 Q 7.65244698486328 1.7089916249999997 7.63572198486328 1.6977022499999999 Q 7.61899698486328 1.6864128749999998 7.59809073486328 1.6780503749999998 Q 7.57718448486328 1.6696878749999997 7.55335135986328 1.6646703749999996 Q 7.529518234863279 1.6596528749999997 7.50275823486328 1.6596528749999997 Q 7.4249869848632795 1.6596528749999997 7.38861010986328 1.6893397499999998 Q 7.35223323486328 1.7190266249999997 7.35223323486328 1.7700378749999996 Q 7.35223323486328 1.8051603749999998 7.3693763598632795 1.8252303749999998 Q 7.38651948486328 1.8453003749999997 7.42331448486328 1.8578441249999997 Q 7.460109484863279 1.8703878749999996 7.51697448486328 1.8837678749999998 Q 7.58052948486328 1.8971478749999997 7.62652323486328 1.9155453749999998 Q 7.67251698486328 1.9339428749999996 7.697604484863279 1.9653022499999997 Q 7.72269198486328 1.9966616249999998 7.72269198486328 2.0501816249999996 Q 7.72269198486328 2.0911578749999995 7.70680323486328 2.1212628749999998 Q 7.6909144848632796 2.1513678749999996 7.6624819848632795 2.1714378749999996 Q 7.634049484863279 2.1915078749999997 7.59474573486328 2.2011247499999995 Q 7.55544198486328 2.210741625 7.50861198486328 2.210741625 Q 7.46261823486328 2.210741625 7.42038760986328 2.2011247499999995 Q 7.3781569848632795 2.1915078749999997 7.34052573486328 2.17269225 Q 7.3028944848632795 2.1538766249999997 7.27028073486328 2.1246078749999997 L 7.29954948486328 2.076941625 Q 7.315438234863279 2.0936666249999996 7.33759885986328 2.1083009999999995 Q 7.35975948486328 2.1229353749999995 7.3869376098632795 2.1346428749999995 Q 7.414115734863279 2.146350375 7.445475109863279 2.15262225 Q 7.4768344848632795 2.1588941249999998 7.51028448486328 2.1588941249999998 Q 7.5813657348632795 2.1588941249999998 7.62108760986328 2.1329703749999998 Q 7.66080948486328 2.1070466249999997 7.66080948486328 2.0560353749999996 Q 7.66080948486328 2.019240375 7.64073948486328 1.9970797499999997 Q 7.62066948486328 1.9749191249999998 7.58052948486328 1.9607028749999997 Q 7.5403894848632795 1.9464866249999997 7.48185198486328 1.9331066249999997 Q 7.419969484863279 1.9188903749999997 7.37732073486328 1.9013291249999997 Q 7.33467198486328 1.8837678749999998 7.31334760986328 1.8549172499999997 Q 7.292023234863279 1.8260666249999997 7.292023234863279 1.7784003749999997 Q 7.292023234863279 1.7232078749999997 7.31920135986328 1.6851584999999996 Q 7.34637948486328 1.6471091249999996 7.39404573486328 1.6274572499999997 Q 7.44171198486328 1.6078053749999999 7.50359448486328 1.6078053749999999 Q 7.54289823486328 1.6078053749999999 7.57676635986328 1.6157497499999998 Q 7.610634484863279 1.6236941249999997 7.63948510986328 1.6387466249999996 Q 7.6683357348632795 1.6537991249999997 7.69342323486328 1.6763778749999996 L 7.66499073486328 1.7232078749999997 M 8.290501243286132 2.1538766249999997 L 8.290501243286132 2.2057241249999997 L 7.891609993286131 2.2057241249999997 L 7.891609993286131 1.6119866249999997 L 8.282974993286132 1.6119866249999997 L 8.282974993286132 1.6638341249999997 L 7.950147493286131 1.6638341249999997 L 7.950147493286131 1.8779141249999998 L 8.24032624328613 1.8779141249999998 L 8.24032624328613 1.9272528749999998 L 7.950147493286131 1.9272528749999998 L 7.950147493286131 2.1538766249999997 L 8.290501243286132 2.1538766249999997 M 8.466957343139647 2.2057241249999997 L 8.466957343139647 1.6119866249999997 L 8.717832343139648 1.6119866249999997 Q 8.756299843139647 1.6119866249999997 8.788077343139648 1.6278753749999997 Q 8.819854843139646 1.6437641249999997 8.843687968139648 1.6709422499999997 Q 8.867521093139647 1.6981203749999998 8.880482968139647 1.7311522499999996 Q 8.893444843139648 1.7641841249999997 8.893444843139648 1.7984703749999997 Q 8.893444843139648 1.8411191249999996 8.877137968139648 1.8787503749999996 Q 8.860831093139646 1.9163816249999996 8.831144218139647 1.9423053749999997 Q 8.801457343139647 1.9682291249999997 8.761317343139646 1.9765916249999997 L 8.906824843139647 2.2057241249999997 L 8.840761093139648 2.2057241249999997 L 8.701107343139647 1.9866266249999998 L 8.525494843139647 1.9866266249999998 L 8.525494843139647 2.2057241249999997 L 8.466957343139647 2.2057241249999997 M 8.525494843139647 1.9347791249999997 L 8.719504843139648 1.9347791249999997 Q 8.754627343139648 1.9347791249999997 8.780551093139646 1.9155453749999998 Q 8.806474843139647 1.8963116249999996 8.820691093139647 1.8649522499999998 Q 8.834907343139648 1.8335928749999997 8.834907343139648 1.7984703749999997 Q 8.834907343139648 1.7625116249999997 8.818600468139646 1.7319884999999997 Q 8.802293593139646 1.7014653749999997 8.775115468139647 1.6826497499999997 Q 8.747937343139647 1.6638341249999997 8.714487343139647 1.6638341249999997 L 8.525494843139647 1.6638341249999997 L 8.525494843139647 1.9347791249999997 M 9.477996251220702 2.1538766249999997 L 9.477996251220702 2.2057241249999997 L 9.079105001220702 2.2057241249999997 L 9.079105001220702 1.6119866249999997 L 9.470470001220702 1.6119866249999997 L 9.470470001220702 1.6638341249999997 L 9.137642501220702 1.6638341249999997 L 9.137642501220702 1.8779141249999998 L 9.427821251220703 1.8779141249999998 L 9.427821251220703 1.9272528749999998 L 9.137642501220702 1.9272528749999998 L 9.137642501220702 2.1538766249999997 L 9.477996251220702 2.1538766249999997 M 9.933763934326171 2.2057241249999997 L 9.933763934326171 1.6119866249999997 L 9.992301434326171 1.6119866249999997 L 9.992301434326171 2.1538766249999997 L 10.335163934326172 2.1538766249999997 L 10.335163934326172 2.2057241249999997 L 9.933763934326171 2.2057241249999997 M 10.702291159057618 2.2099053749999995 Q 10.639572409057617 2.2099053749999995 10.588561159057617 2.184817875 Q 10.537549909057617 2.1597303749999996 10.500754909057617 2.1166634999999996 Q 10.463959909057616 2.0735966249999995 10.443889909057617 2.0196585 Q 10.423819909057617 1.9657203749999996 10.423819909057617 1.9088553749999997 Q 10.423819909057617 1.8494816249999997 10.444726159057616 1.7955434999999997 Q 10.465632409057617 1.7416053749999998 10.503681784057617 1.6993747499999996 Q 10.541731159057617 1.6571441249999999 10.592742409057617 1.6324747499999996 Q 10.643753659057616 1.6078053749999999 10.703127409057617 1.6078053749999999 Q 10.765846159057617 1.6078053749999999 10.816857409057617 1.6337291249999997 Q 10.867868659057617 1.6596528749999997 10.904245534057617 1.7031378749999997 Q 10.940622409057617 1.7466228749999997 10.960692409057616 1.8001428749999997 Q 10.980762409057617 1.8536628749999997 10.980762409057617 1.9096916249999998 Q 10.980762409057617 1.9690653749999998 10.959856159057617 2.0230034999999997 Q 10.938949909057616 2.076941625 10.901318659057617 2.1191722499999996 Q 10.863687409057617 2.161402875 10.812676159057617 2.1856541249999997 Q 10.761664909057616 2.2099053749999995 10.702291159057618 2.2099053749999995 M 10.482357409057617 1.9088553749999997 Q 10.482357409057617 1.9573578749999998 10.498246159057617 2.00209725 Q 10.514134909057617 2.0468366249999996 10.543403659057617 2.0815409999999996 Q 10.572672409057617 2.1162453749999997 10.613230534057617 2.1367334999999996 Q 10.653788659057616 2.1572216249999996 10.702291159057618 2.1572216249999996 Q 10.753302409057616 2.1572216249999996 10.793860534057616 2.1358972499999997 Q 10.834418659057617 2.114572875 10.863269284057617 2.0790322499999996 Q 10.892119909057616 2.0434916249999997 10.907172409057617 1.9991703749999998 Q 10.922224909057617 1.9548491249999997 10.922224909057617 1.9088553749999997 Q 10.922224909057617 1.8603528749999998 10.906336159057616 1.8160316249999997 Q 10.890447409057616 1.7717103749999996 10.860760534057617 1.7365878749999997 Q 10.831073659057617 1.7014653749999997 10.790933659057616 1.6813953749999997 Q 10.750793659057617 1.6613253749999997 10.702291159057618 1.6613253749999997 Q 10.652116159057616 1.6613253749999997 10.611558034057616 1.6822316249999996 Q 10.570999909057617 1.7031378749999997 10.542149284057617 1.7386784999999998 Q 10.513298659057616 1.7742191249999997 10.497828034057617 1.8185403749999998 Q 10.482357409057617 1.8628616249999996 10.482357409057617 1.9088553749999997 M 10.616993659057616 1.5199991249999996 L 10.616993659057616 1.4413916249999996 L 10.665496159057616 1.4413916249999996 L 10.665496159057616 1.5199991249999996 L 10.616993659057616 1.5199991249999996 M 10.741594909057616 1.5199991249999996 L 10.741594909057616 1.4413916249999996 L 10.790097409057617 1.4413916249999996 L 10.790097409057617 1.5199991249999996 L 10.741594909057616 1.5199991249999996 M 11.50423530944824 1.7232078749999997 Q 11.491691559448242 1.7089916249999997 11.47496655944824 1.6977022499999999 Q 11.458241559448242 1.6864128749999998 11.437335309448242 1.6780503749999998 Q 11.416429059448241 1.6696878749999997 11.392595934448241 1.6646703749999996 Q 11.368762809448242 1.6596528749999997 11.34200280944824 1.6596528749999997 Q 11.264231559448241 1.6596528749999997 11.227854684448241 1.6893397499999998 Q 11.19147780944824 1.7190266249999997 11.19147780944824 1.7700378749999996 Q 11.19147780944824 1.8051603749999998 11.208620934448241 1.8252303749999998 Q 11.225764059448242 1.8453003749999997 11.262559059448241 1.8578441249999997 Q 11.299354059448241 1.8703878749999996 11.356219059448241 1.8837678749999998 Q 11.419774059448242 1.8971478749999997 11.465767809448241 1.9155453749999998 Q 11.511761559448242 1.9339428749999996 11.536849059448242 1.9653022499999997 Q 11.561936559448242 1.9966616249999998 11.561936559448242 2.0501816249999996 Q 11.561936559448242 2.0911578749999995 11.546047809448241 2.1212628749999998 Q 11.530159059448241 2.1513678749999996 11.501726559448242 2.1714378749999996 Q 11.473294059448241 2.1915078749999997 11.433990309448241 2.2011247499999995 Q 11.39468655944824 2.210741625 11.34785655944824 2.210741625 Q 11.301862809448242 2.210741625 11.259632184448241 2.2011247499999995 Q 11.217401559448241 2.1915078749999997 11.17977030944824 2.17269225 Q 11.142139059448242 2.1538766249999997 11.109525309448241 2.1246078749999997 L 11.13879405944824 2.076941625 Q 11.154682809448241 2.0936666249999996 11.17684343444824 2.1083009999999995 Q 11.199004059448242 2.1229353749999995 11.226182184448241 2.1346428749999995 Q 11.253360309448242 2.146350375 11.284719684448241 2.15262225 Q 11.316079059448242 2.1588941249999998 11.34952905944824 2.1588941249999998 Q 11.420610309448241 2.1588941249999998 11.46033218444824 2.1329703749999998 Q 11.500054059448242 2.1070466249999997 11.500054059448242 2.0560353749999996 Q 11.500054059448242 2.019240375 11.479984059448242 1.9970797499999997 Q 11.459914059448241 1.9749191249999998 11.419774059448242 1.9607028749999997 Q 11.379634059448241 1.9464866249999997 11.321096559448241 1.9331066249999997 Q 11.259214059448242 1.9188903749999997 11.216565309448242 1.9013291249999997 Q 11.17391655944824 1.8837678749999998 11.152592184448242 1.8549172499999997 Q 11.131267809448241 1.8260666249999997 11.131267809448241 1.7784003749999997 Q 11.131267809448241 1.7232078749999997 11.158445934448242 1.6851584999999996 Q 11.18562405944824 1.6471091249999996 11.233290309448241 1.6274572499999997 Q 11.280956559448242 1.6078053749999999 11.342839059448242 1.6078053749999999 Q 11.382142809448242 1.6078053749999999 11.416010934448241 1.6157497499999998 Q 11.449879059448241 1.6236941249999997 11.478729684448242 1.6387466249999996 Q 11.507580309448242 1.6537991249999997 11.532667809448242 1.6763778749999996 L 11.50423530944824 1.7232078749999997 M 11.972530817871093 2.2099053749999995 Q 11.902285817871093 2.2099053749999995 11.853783317871093 2.184817875 Q 11.805280817871093 2.1597303749999996 11.776848317871092 2.11749975 Q 11.748415817871093 2.0752691249999997 11.735453942871093 2.0217491249999995 Q 11.722492067871093 1.9682291249999997 11.722492067871093 1.9113641249999997 L 11.722492067871093 1.6119866249999997 L 11.780193317871094 1.6119866249999997 L 11.780193317871094 1.9113641249999997 Q 11.780193317871094 1.9573578749999998 11.789810192871093 2.001679125 Q 11.799427067871093 2.0460003749999998 11.821169567871094 2.0811228749999997 Q 11.842912067871094 2.1162453749999997 11.879707067871093 2.1367334999999996 Q 11.916502067871093 2.1572216249999996 11.971694567871094 2.1572216249999996 Q 12.028559567871094 2.1572216249999996 12.065772692871093 2.1358972499999997 Q 12.102985817871094 2.114572875 12.124310192871093 2.0794503749999995 Q 12.145634567871094 2.0443278749999996 12.154833317871093 2.0004247499999996 Q 12.164032067871092 1.9565216249999997 12.164032067871092 1.9113641249999997 L 12.164032067871092 1.6119866249999997 L 12.222569567871092 1.6119866249999997 L 12.222569567871092 1.9113641249999997 Q 12.222569567871092 1.9707378749999998 12.209189567871093 2.025094125 Q 12.195809567871093 2.0794503749999995 12.166122692871093 2.120426625 Q 12.136435817871092 2.161402875 12.088769567871093 2.1856541249999997 Q 12.041103317871093 2.2099053749999995 11.972530817871093 2.2099053749999995 M 12.486828651123046 1.7198628749999998 L 12.486828651123046 2.2057241249999997 L 12.428291151123046 2.2057241249999997 L 12.428291151123046 1.6119866249999997 L 12.476793651123046 1.6119866249999997 L 12.866486151123047 2.1070466249999997 L 12.866486151123047 1.6128228749999998 L 12.925023651123047 1.6128228749999998 L 12.925023651123047 2.2057241249999997 L 12.870667401123047 2.2057241249999997 L 12.486828651123046 1.7198628749999998 M 13.37824828491211 2.2099053749999995 Q 13.318874534912108 2.2099053749999995 13.267863284912108 2.18439975 Q 13.21685203491211 2.1588941249999998 13.17922078491211 2.115409125 Q 13.141589534912109 2.071924125 13.121101409912109 2.0184041249999995 Q 13.100613284912109 1.9648841249999998 13.100613284912109 1.9080191249999996 Q 13.100613284912109 1.8478091249999997 13.121101409912109 1.7938709999999998 Q 13.141589534912109 1.7399328749999996 13.178384534912109 1.6981203749999998 Q 13.215179534912108 1.6563078749999998 13.26535453491211 1.6320566249999997 Q 13.315529534912109 1.6078053749999999 13.37490328491211 1.6078053749999999 Q 13.46270953491211 1.6078053749999999 13.51790203491211 1.6437641249999997 Q 13.573094534912109 1.6797228749999997 13.60152703491211 1.7374241249999998 L 13.55636953491211 1.7675291249999998 Q 13.527937034912108 1.7123366249999998 13.48027078491211 1.6864128749999998 Q 13.432604534912109 1.6604891249999998 13.374067034912109 1.6604891249999998 Q 13.324728284912108 1.6604891249999998 13.285006409912109 1.6813953749999997 Q 13.245284534912109 1.7023016249999996 13.21685203491211 1.7374241249999998 Q 13.188419534912109 1.7725466249999997 13.173785159912109 1.8168678749999998 Q 13.159150784912109 1.8611891249999997 13.159150784912109 1.9088553749999997 Q 13.159150784912109 1.9590303749999998 13.17587578491211 2.0037697499999996 Q 13.19260078491211 2.048509125 13.223542034912109 2.0832135 Q 13.254483284912109 2.117917875 13.295041409912109 2.1375697499999995 Q 13.33559953491211 2.1572216249999996 13.38242953491211 2.1572216249999996 Q 13.436785784912109 2.1572216249999996 13.485288284912109 2.1300434999999998 Q 13.533790784912108 2.1028653749999995 13.57811203491211 2.0460003749999998 L 13.57811203491211 2.1078828749999996 Q 13.49365078491211 2.2099053749999995 13.37824828491211 2.2099053749999995 M 13.568913284912108 1.9590303749999998 L 13.436785784912109 1.9590303749999998 L 13.436785784912109 1.9138728749999996 L 13.618252034912109 1.9138728749999996 L 13.618252034912109 2.2057241249999997 L 13.568913284912108 2.2057241249999997 L 13.568913284912108 1.9590303749999998 M 14.203629893188477 2.1538766249999997 L 14.203629893188477 2.2057241249999997 L 13.804738643188477 2.2057241249999997 L 13.804738643188477 1.6119866249999997 L 14.196103643188478 1.6119866249999997 L 14.196103643188478 1.6638341249999997 L 13.863276143188477 1.6638341249999997 L 13.863276143188477 1.8779141249999998 L 14.153454893188478 1.8779141249999998 L 14.153454893188478 1.9272528749999998 L 13.863276143188477 1.9272528749999998 L 13.863276143188477 2.1538766249999997 L 14.203629893188477 2.1538766249999997 M 14.438623493041993 1.7198628749999998 L 14.438623493041993 2.2057241249999997 L 14.380085993041993 2.2057241249999997 L 14.380085993041993 1.6119866249999997 L 14.428588493041993 1.6119866249999997 L 14.818280993041993 2.1070466249999997 L 14.818280993041993 1.6128228749999998 L 14.876818493041993 1.6128228749999998 L 14.876818493041993 2.2057241249999997 L 14.822462243041993 2.2057241249999997 L 14.438623493041993 1.7198628749999998" fill="#ebebeb" fill-rule="nonzero"></path></g><g clip-path="url(#SvgjsClipPath1001)"><g clip-path="url(#SvgjsClipPath100026f3c891-31c1-4b0a-91b0-204dbcf83e0e)"><path d=" M -2.34447350690388 -0.05366091743873522 L -2.34447350690388 0.6330153865353793 L -0.40000000000000124 0.6330153865353793 L -0.40000000000000124 -0.05366091743873522 Z M -1.793952897067455 0.3966807813025695 C -1.8530561379920636 0.3966575214656953 -1.9009564483986097 0.3487383526692252 -1.9009564438217041 0.28963510716770974 C -1.9009564438217041 0.26125600209716715 -1.8896828882277834 0.23403923128615634 -1.8696158305883968 0.21397217364676957 C -1.8495487729490083 0.19390511600738283 -1.822332002137999 0.18263156041346226 -1.793952897067455 0.18263156041346226 C -1.7655737919969123 0.18263156041346226 -1.7383570211859003 0.19390511600738283 -1.7182899635465132 0.21397217364676957 C -1.6982229059071279 0.23403923128615634 -1.6869493503132045 0.26125600209716715 -1.6869493503132045 0.2896351071677113 C -1.6870422816319826 0.3486725402679515 -1.7349153953683532 0.3964891109565989 -1.793952897067455 0.3965122717801235 Z M -1.372257817142247 0.3966807813025695 C -1.4313610580668552 0.3966575214656953 -1.4792613684734013 0.3487383526692252 -1.4792613638964958 0.28963510716770974 C -1.4792381151059208 0.2305483127612054 -1.4313446115487847 0.18265480920405405 -1.3722578171422635 0.18263156041346226 C -1.3131545716407342 0.18263155583655521 -1.2652354028442643 0.2305318662430998 -1.2652121430073886 0.28963510716770974 C -1.2653051047527564 0.3486889827708022 -1.3132038683697504 0.3965123449495897 -1.3722578171422546 0.3965122717801235 Z M -0.9505206098364263 0.3966807813025695 C -1.009623850761038 0.3966575214656953 -1.0575241611675827 0.3487383526692252 -1.0575241565906768 0.28963510716770974 C -1.0575241565906768 0.26125600209716715 -1.0462506009967565 0.23403923128615634 -1.0261835433573698 0.21397217364676957 C -1.0061164857179827 0.19390511600738283 -0.978899714906972 0.18263156041346226 -0.9505206098364294 0.18263156041346226 C -0.922141504765881 0.18263156041346226 -0.8949247339548698 0.19390511600738283 -0.8748576763154832 0.21397217364676957 C -0.8547906186760965 0.23403923128615634 -0.8435170630821744 0.26125600209716715 -0.8435170630821744 0.2896351071677113 C -0.8436099944009521 0.3486725402679515 -0.8914831081373231 0.3964891109565989 -0.9505206098364236 0.3965122717801235 Z" fill="#939393" transform="matrix(1,0,0,1,0,0)" fill-rule="nonzero"></path></g><g clip-path="url(#SvgjsClipPath100026f3c891-31c1-4b0a-91b0-204dbcf83e0e)"><path d=" M -2.34447350690388 0.7593975283711065 L -2.34447350690388 1.4460738323452218 L -0.40000000000000124 1.4460738323452218 L -0.40000000000000124 0.7593975283711065 Z M -1.793952897067455 1.209739227112412 C -1.8223320021379963 1.209739227112412 -1.8495487729490083 1.1984656715184914 -1.8696158305883968 1.1783986138791054 C -1.8896828882277803 1.1583315562397194 -1.9009564438217041 1.131114785428708 -1.9009564438217041 1.1027356803581638 C -1.9009564438217041 1.0743565752876203 -1.8896828882277834 1.0471398044766105 -1.8696158305883968 1.027072746837223 C -1.8495487729490083 1.007005689197837 -1.822332002137999 0.9957321336039155 -1.793952897067455 0.9957321336039155 C -1.7655737919969123 0.9957321336039155 -1.7383570211859003 1.007005689197837 -1.7182899635465132 1.027072746837223 C -1.6982229059071279 1.047139804476609 -1.6869493503132045 1.0743565752876203 -1.6869493503132045 1.1027356803581638 C -1.686915805806409 1.1311366762984112 -1.6981745510752244 1.158385926283713 -1.7182452456344905 1.178480326387737 C -1.7383159401937593 1.1985747264917601 -1.765551881317458 1.2098656290640033 -1.7939528970674568 1.2098656092542488 Z M -1.372257817142247 1.209739227112412 C -1.400636922212788 1.209739227112412 -1.4278536930238004 1.1984656715184914 -1.4479207506631884 1.1783986138791054 C -1.4679878083025737 1.1583315562397194 -1.4792613638964958 1.131114785428708 -1.4792613638964958 1.1027356803581638 C -1.4792613638964958 1.0743565752876203 -1.4679878083025755 1.0471398044766105 -1.4479207506631884 1.027072746837223 C -1.4278536930238004 1.007005689197837 -1.400636922212791 0.9957321336039155 -1.372257817142247 0.9957321336039155 C -1.3131545716407342 0.9957321290270085 -1.2652354028442643 1.0436324394335539 -1.2652121430073886 1.102735680358163 C -1.2651897857605992 1.1311405536046155 -1.2764579091395611 1.1583896899752895 -1.2965352909280146 1.1784828745042246 C -1.3166126727164649 1.1985760590331591 -1.34385293509721 1.209865618052854 -1.372257817142256 1.2098656092542488 Z M -0.9505206098364263 1.209739227112412 C -0.9788997149069689 1.209739227112412 -1.0061164857179827 1.1984656715184914 -1.0261835433573698 1.1783986138791054 C -1.0462506009967547 1.1583315562397194 -1.0575241565906768 1.131114785428708 -1.0575241565906768 1.1027356803581638 C -1.0575241565906768 1.0743565752876203 -1.0462506009967565 1.0471398044766105 -1.0261835433573698 1.027072746837223 C -1.0061164857179827 1.007005689197837 -0.978899714906972 0.9957321336039155 -0.9505206098364294 0.9957321336039155 C -0.922141504765881 0.9957321336039155 -0.8949247339548698 1.007005689197837 -0.8748576763154832 1.027072746837223 C -0.8547906186760965 1.047139804476609 -0.8435170630821744 1.0743565752876203 -0.8435170630821744 1.1027356803581638 C -0.8434835185753791 1.1311366762984112 -0.8547422638441944 1.158385926283713 -0.8748129584034587 1.178480326387737 C -0.8948836529627293 1.1985747264917601 -0.9221195940864275 1.2098656290640033 -0.9505206098364263 1.2098656092542488 Z" fill="#939393" transform="matrix(1,0,0,1,0,0)" fill-rule="nonzero"></path></g><g clip-path="url(#SvgjsClipPath100026f3c891-31c1-4b0a-91b0-204dbcf83e0e)"><path d=" M -2.34447350690388 1.5729193753676793 L -2.34447350690388 2.259595679341795 L -0.40000000000000124 2.259595679341795 L -0.40000000000000124 1.5729193753676793 Z M -1.793952897067455 2.0232189467283734 C -1.8223320021379963 2.0232189467283734 -1.8495487729490083 2.0119453911344527 -1.8696158305883968 1.991878333495066 C -1.8896828882277803 1.9718112758556798 -1.9009564438217041 1.9445945050446694 -1.9009564438217041 1.9162153999741252 C -1.9009564438217041 1.887836294903581 -1.8896828882277834 1.860619524092571 -1.8696158305883968 1.8405524664531834 C -1.8495487729490083 1.8204854088137974 -1.822332002137999 1.8092118532198769 -1.793952897067455 1.8092118532198769 C -1.7655737919969123 1.8092118532198769 -1.7383570211859003 1.8204854088137974 -1.7182899635465132 1.8405524664531834 C -1.6982229059071279 1.8606195240925694 -1.6869493503132045 1.887836294903581 -1.6869493503132045 1.9162153999741252 C -1.6869493503132045 1.9445945050446694 -1.6982229059071265 1.9718112758556794 -1.7182899635465132 1.991878333495066 C -1.7383570211859003 2.0119453911344527 -1.765573791996911 2.0232189467283734 -1.793952897067455 2.0232189467283734 Z M -1.372257817142247 2.0232189467283734 C -1.400636922212788 2.0232189467283734 -1.4278536930238004 2.0119453911344527 -1.4479207506631884 1.991878333495066 C -1.4679878083025737 1.9718112758556798 -1.4792613638964958 1.9445945050446694 -1.4792613638964958 1.9162153999741252 C -1.4792613638964958 1.887836294903581 -1.4679878083025755 1.860619524092571 -1.4479207506631884 1.8405524664531834 C -1.4278536930238004 1.8204854088137974 -1.400636922212791 1.8092118532198769 -1.372257817142247 1.8092118532198769 C -1.3131545716407342 1.8092118486429691 -1.2652354028442643 1.8571121590495145 -1.2652121430073886 1.9162153999741236 C -1.2652354028442687 1.9753186408987413 -1.3131545716407391 2.0232189513052843 -1.372257817142256 2.0232189467283743 Z M -0.9505206098364263 2.0232189467283734 C -0.9788997149069689 2.0232189467283734 -1.0061164857179827 2.0119453911344527 -1.0261835433573698 1.991878333495066 C -1.0462506009967547 1.9718112758556798 -1.0575241565906768 1.9445945050446694 -1.0575241565906768 1.9162153999741252 C -1.0575241565906768 1.887836294903581 -1.0462506009967565 1.860619524092571 -1.0261835433573698 1.8405524664531834 C -1.0061164857179827 1.8204854088137974 -0.978899714906972 1.8092118532198769 -0.9505206098364294 1.8092118532198769 C -0.922141504765881 1.8092118532198769 -0.8949247339548698 1.8204854088137974 -0.8748576763154832 1.8405524664531834 C -0.8547906186760965 1.8606195240925694 -0.8435170630821744 1.887836294903581 -0.8435170630821744 1.9162153999741252 C -0.8435170630821744 1.9445945050446694 -0.8547906186760934 1.9718112758556794 -0.8748576763154832 1.991878333495066 C -0.8949247339548698 2.0119453911344527 -0.922141504765881 2.0232189467283734 -0.9505206098364236 2.0232189467283734 Z" fill="#939393" transform="matrix(1,0,0,1,0,0)" fill-rule="nonzero"></path></g><g clip-path="url(#SvgjsClipPath100026f3c891-31c1-4b0a-91b0-204dbcf83e0e)"><path d=" M -2.4708135213589957 -0.050374981751007464 C -2.498364828279184 -0.05264986030404999 -2.526239111784064 -0.05380134204077559 -2.5544363718736354 -0.05382942696118276 C -2.8963272332031624 -0.0539661279758981 -3.215600493058348 0.11700873510257054 -3.4049881864280778 0.4016518122147772 C -3.4360370123625454 0.39687081136026414 -3.467392009967803 0.3943505847902851 -3.4988058630507926 0.39411101108524266 C -3.830465537079482 0.39409484075256246 -4.107482747643794 0.6468401715146609 -4.137793972172229 0.9771118313734519 C -4.448312443831121 1.0274295829076925 -4.676545525581794 1.2954647443414553 -4.6767295523403805 1.6100335976867712 C -4.6767407304341075 1.7802703892055536 -4.6091136120701695 1.943536702010807 -4.488730121645121 2.06390439096703 C -4.3683466312200725 2.184272079923254 -4.205071442541604 2.251877766054254 -4.034834653956788 2.251844241309204 L -2.4708135213589957 2.253487209153068 Z" fill="#939393" transform="matrix(1,0,0,1,0,0)" fill-rule="nonzero"></path></g></g></g><defs><clipPath id="SvgjsClipPath1001"><path d=" M -4.6767295523403805 -0.05382942696118276 h 4.27672955234038 v 2.313382978922365 h -4.27672955234038 Z"></path></clipPath><clipPath id="SvgjsClipPath100026f3c891-31c1-4b0a-91b0-204dbcf83e0e"><path d=" M -4.6767295523403805 -0.05382942696118276 L -0.40000000000000036 -0.05382942696118276 L -0.40000000000000036 2.2595535519611825 L -4.6767295523403805 2.2595535519611825 Z"></path></clipPath></defs></svg>