<svg xmlns="http://www.w3.org/2000/svg" version="1.1" xmlns:xlink="http://www.w3.org/1999/xlink" xmlns:svgjs="http://svgjs.dev/svgjs" viewBox="0 0 23.245410831595613 3.621580092399782"><g transform="matrix(1,0,0,1,5.213742559850886,0.7493150461998914)"><rect width="23.245410831595613" height="23.245410831595613" x="-5.2137425598508855" y="-10.561230415797807" fill="#ffffff"></rect><g><path d=" M 0.3375 0.008999999999999897 L 0.6645 0.008999999999999897 L 1.0035 1.0739999999999998 L 0.7065 1.0739999999999998 L 0.642 0.8654999999999998 L 0.3585 0.8654999999999998 L 0.2955 1.0739999999999998 L -0.003 1.0739999999999998 L 0.3375 0.008999999999999897 M 0.5955 0.6704999999999999 L 0.501 0.2954999999999999 L 0.402 0.6704999999999999 L 0.5955 0.6704999999999999 M 1.10698828125 1.0739999999999998 L 1.10698828125 0.008999999999999897 L 1.51648828125 0.008999999999999897 Q 1.69348828125 0.008999999999999897 1.8127382812500001 0.08024999999999982 Q 1.9319882812500002 0.15149999999999986 1.9927382812500003 0.2722499999999999 Q 2.05348828125 0.3929999999999998 2.05348828125 0.5399999999999998 Q 2.05348828125 0.7019999999999998 1.98673828125 0.8219999999999998 Q 1.9199882812500002 0.9419999999999998 1.79923828125 1.0079999999999998 Q 1.6784882812500002 1.0739999999999998 1.51648828125 1.0739999999999998 L 1.10698828125 1.0739999999999998 M 1.7564882812500002 0.5399999999999998 Q 1.7564882812500002 0.4574999999999998 1.72798828125 0.3952499999999999 Q 1.6994882812500003 0.33299999999999985 1.64548828125 0.2984999999999999 Q 1.5914882812500002 0.2639999999999998 1.51648828125 0.2639999999999998 L 1.39948828125 0.2639999999999998 L 1.39948828125 0.8189999999999998 L 1.51648828125 0.8189999999999998 Q 1.5929882812500002 0.8189999999999998 1.64623828125 0.7829999999999999 Q 1.6994882812500003 0.7469999999999999 1.72798828125 0.6832499999999999 Q 1.7564882812500002 0.6194999999999998 1.7564882812500002 0.5399999999999998 M 2.9549934082031255 0.8189999999999998 L 2.9549934082031255 1.0739999999999998 L 2.195993408203125 1.0739999999999998 L 2.195993408203125 0.008999999999999897 L 2.941493408203125 0.008999999999999897 L 2.941493408203125 0.2639999999999998 L 2.488493408203125 0.2639999999999998 L 2.488493408203125 0.4139999999999998 L 2.875493408203125 0.4139999999999998 L 2.875493408203125 0.6509999999999998 L 2.488493408203125 0.6509999999999998 L 2.488493408203125 0.8189999999999998 L 2.9549934082031255 0.8189999999999998 M 3.3989707031250003 0.5504999999999999 L 3.3989707031250003 1.0739999999999998 L 3.1064707031250003 1.0739999999999998 L 3.1064707031250003 0.008999999999999897 L 3.3344707031250005 0.008999999999999897 L 3.7619707031250003 0.5504999999999999 L 3.7619707031250003 0.008999999999999897 L 4.054470703125 0.008999999999999897 L 4.054470703125 1.0739999999999998 L 3.8219707031250003 1.0739999999999998 L 3.3989707031250003 0.5504999999999999 M 5.082013183593751 0.2639999999999998 L 4.776013183593751 0.2639999999999998 L 4.776013183593751 1.0739999999999998 L 4.48351318359375 1.0739999999999998 L 4.48351318359375 0.2639999999999998 L 4.17601318359375 0.2639999999999998 L 4.17601318359375 0.008999999999999897 L 5.082013183593751 0.008999999999999897 L 5.082013183593751 0.2639999999999998 M 5.96254833984375 0.8189999999999998 L 5.96254833984375 1.0739999999999998 L 5.20354833984375 1.0739999999999998 L 5.20354833984375 0.008999999999999897 L 5.94904833984375 0.008999999999999897 L 5.94904833984375 0.2639999999999998 L 5.4960483398437505 0.2639999999999998 L 5.4960483398437505 0.4139999999999998 L 5.88304833984375 0.4139999999999998 L 5.88304833984375 0.6509999999999998 L 5.4960483398437505 0.6509999999999998 L 5.4960483398437505 0.8189999999999998 L 5.96254833984375 0.8189999999999998 M 6.039046142578125 0.5324999999999999 Q 6.039046142578125 0.43499999999999983 6.075796142578125 0.34124999999999983 Q 6.1125461425781245 0.24749999999999983 6.1830461425781245 0.17099999999999982 Q 6.2535461425781245 0.0944999999999998 6.354796142578125 0.04874999999999985 Q 6.456046142578125 0.0029999999999998916 6.5835461425781245 0.0029999999999998916 Q 6.736546142578125 0.0029999999999998916 6.850546142578125 0.06674999999999986 Q 6.964546142578125 0.13049999999999984 7.020046142578125 0.23549999999999982 L 6.796546142578125 0.39449999999999985 Q 6.777046142578125 0.34199999999999986 6.740296142578125 0.3134999999999998 Q 6.703546142578125 0.2849999999999998 6.660796142578125 0.2737499999999998 Q 6.618046142578125 0.26249999999999984 6.577546142578125 0.26249999999999984 Q 6.514546142578125 0.26249999999999984 6.468796142578125 0.2872499999999998 Q 6.423046142578125 0.31199999999999983 6.3937961425781245 0.3524999999999998 Q 6.364546142578125 0.3929999999999998 6.350296142578125 0.4424999999999998 Q 6.336046142578125 0.4919999999999999 6.336046142578125 0.5414999999999999 Q 6.336046142578125 0.5969999999999998 6.352546142578125 0.6479999999999999 Q 6.369046142578124 0.6989999999999998 6.400546142578125 0.7387499999999998 Q 6.432046142578125 0.7784999999999999 6.477796142578125 0.8009999999999998 Q 6.523546142578125 0.8234999999999999 6.580546142578125 0.8234999999999999 Q 6.621046142578125 0.8234999999999999 6.663046142578125 0.8107499999999999 Q 6.705046142578125 0.7979999999999998 6.739546142578125 0.7694999999999999 Q 6.774046142578125 0.7409999999999999 6.7920461425781244 0.6929999999999998 L 7.030546142578125 0.8354999999999998 Q 6.999046142578125 0.9134999999999999 6.925546142578125 0.9689999999999999 Q 6.852046142578125 1.0244999999999997 6.759046142578125 1.0537499999999997 Q 6.666046142578125 1.0829999999999997 6.574546142578125 1.0829999999999997 Q 6.456046142578125 1.0829999999999997 6.357796142578125 1.03575 Q 6.259546142578125 0.9884999999999998 6.188296142578125 0.9097499999999998 Q 6.117046142578125 0.8309999999999998 6.078046142578125 0.7327499999999998 Q 6.039046142578125 0.6344999999999998 6.039046142578125 0.5324999999999999 M 8.0910146484375 0.008999999999999897 L 8.0910146484375 1.0739999999999998 L 7.7985146484375 1.0739999999999998 L 7.7985146484375 0.6569999999999998 L 7.441514648437501 0.6569999999999998 L 7.441514648437501 1.0739999999999998 L 7.1490146484375 1.0739999999999998 L 7.1490146484375 0.008999999999999897 L 7.441514648437501 0.008999999999999897 L 7.441514648437501 0.4019999999999998 L 7.7985146484375 0.4019999999999998 L 7.7985146484375 0.008999999999999897 L 8.0910146484375 0.008999999999999897 M 9.286478027343751 0.3569999999999999 Q 9.286478027343751 0.3569999999999999 9.260978027343752 0.34199999999999986 Q 9.235478027343751 0.32699999999999985 9.193478027343751 0.3082499999999998 Q 9.151478027343751 0.28949999999999987 9.101978027343751 0.27449999999999986 Q 9.052478027343751 0.25949999999999984 9.004478027343751 0.25949999999999984 Q 8.966978027343751 0.25949999999999984 8.942978027343752 0.27149999999999985 Q 8.918978027343751 0.28349999999999986 8.918978027343751 0.31199999999999983 Q 8.918978027343751 0.33899999999999986 8.942978027343752 0.3554999999999998 Q 8.966978027343751 0.3719999999999998 9.011228027343751 0.38549999999999984 Q 9.055478027343751 0.3989999999999998 9.116978027343752 0.41849999999999987 Q 9.215978027343752 0.4484999999999998 9.287978027343751 0.4874999999999998 Q 9.359978027343752 0.5264999999999999 9.398978027343752 0.5872499999999998 Q 9.437978027343751 0.6479999999999999 9.437978027343751 0.7484999999999998 Q 9.437978027343751 0.8444999999999998 9.403478027343752 0.9097499999999998 Q 9.368978027343752 0.9749999999999999 9.310478027343752 1.0139999999999998 Q 9.251978027343752 1.053 9.179978027343752 1.07025 Q 9.107978027343751 1.0875 9.032978027343752 1.0875 Q 8.956478027343751 1.0875 8.873228027343751 1.0717499999999998 Q 8.789978027343752 1.0559999999999998 8.711978027343752 1.0282499999999999 Q 8.633978027343751 1.0005 8.569478027343752 0.9629999999999999 L 8.695478027343752 0.7064999999999999 Q 8.695478027343752 0.7064999999999999 8.725478027343751 0.7244999999999998 Q 8.755478027343752 0.7424999999999998 8.804978027343752 0.7649999999999999 Q 8.854478027343752 0.7874999999999999 8.915228027343751 0.8054999999999999 Q 8.975978027343752 0.8234999999999999 9.037478027343752 0.8234999999999999 Q 9.085478027343752 0.8234999999999999 9.104228027343751 0.8107499999999999 Q 9.122978027343752 0.7979999999999998 9.122978027343752 0.7769999999999999 Q 9.122978027343752 0.7454999999999998 9.08997802734375 0.7282499999999998 Q 9.056978027343751 0.7109999999999999 9.003728027343751 0.6952499999999998 Q 8.95047802734375 0.6794999999999998 8.885978027343752 0.6584999999999999 Q 8.792978027343752 0.6269999999999998 8.732978027343751 0.5872499999999998 Q 8.672978027343751 0.5474999999999999 8.644478027343752 0.4927499999999998 Q 8.615978027343752 0.43799999999999983 8.615978027343752 0.3599999999999999 Q 8.615978027343752 0.24149999999999983 8.67147802734375 0.1619999999999998 Q 8.726978027343751 0.0824999999999998 8.817728027343751 0.04124999999999979 Q 8.908478027343751 -2.220446049250313e-16 9.013478027343751 -2.220446049250313e-16 Q 9.09147802734375 -2.220446049250313e-16 9.164228027343752 0.018749999999999822 Q 9.236978027343751 0.03749999999999987 9.300728027343752 0.06449999999999978 Q 9.364478027343752 0.0914999999999998 9.412478027343752 0.11549999999999983 L 9.286478027343751 0.3569999999999999 M 10.061984619140627 1.0829999999999997 Q 9.940484619140626 1.0829999999999997 9.841484619140628 1.0372499999999998 Q 9.742484619140628 0.9914999999999998 9.671234619140627 0.9142499999999998 Q 9.599984619140628 0.8369999999999999 9.561734619140626 0.7402499999999999 Q 9.523484619140627 0.6434999999999998 9.523484619140627 0.5399999999999998 Q 9.523484619140627 0.4334999999999999 9.563984619140626 0.3374999999999998 Q 9.604484619140628 0.24149999999999983 9.677234619140627 0.16574999999999984 Q 9.749984619140626 0.08999999999999986 9.849734619140627 0.046499999999999764 Q 9.949484619140627 0.0029999999999998916 10.067984619140628 0.0029999999999998916 Q 10.189484619140627 0.0029999999999998916 10.288484619140627 0.04874999999999985 Q 10.387484619140627 0.0944999999999998 10.457984619140626 0.17249999999999988 Q 10.528484619140627 0.25049999999999983 10.566734619140627 0.34724999999999984 Q 10.604984619140627 0.44399999999999984 10.604984619140627 0.5459999999999998 Q 10.604984619140627 0.6509999999999998 10.565234619140627 0.7469999999999999 Q 10.525484619140627 0.8429999999999999 10.452734619140628 0.9187499999999998 Q 10.379984619140627 0.9944999999999998 10.280984619140627 1.0387499999999998 Q 10.181984619140627 1.0829999999999997 10.061984619140627 1.0829999999999997 M 9.820484619140627 0.5429999999999998 Q 9.820484619140627 0.5969999999999998 9.835484619140628 0.6472499999999999 Q 9.850484619140627 0.6974999999999998 9.880484619140628 0.7372499999999998 Q 9.910484619140627 0.7769999999999999 9.956234619140627 0.8002499999999999 Q 10.001984619140627 0.8234999999999999 10.064984619140628 0.8234999999999999 Q 10.127984619140626 0.8234999999999999 10.174484619140626 0.7994999999999999 Q 10.220984619140626 0.7754999999999999 10.250234619140628 0.7342499999999998 Q 10.279484619140627 0.6929999999999998 10.293734619140627 0.6427499999999998 Q 10.307984619140628 0.5924999999999998 10.307984619140628 0.5399999999999998 Q 10.307984619140628 0.4859999999999999 10.292984619140627 0.4364999999999998 Q 10.277984619140627 0.3869999999999998 10.247984619140627 0.34724999999999984 Q 10.217984619140626 0.3074999999999998 10.171484619140628 0.2849999999999998 Q 10.124984619140626 0.26249999999999984 10.063484619140628 0.26249999999999984 Q 10.000484619140627 0.26249999999999984 9.954734619140627 0.28649999999999987 Q 9.908984619140627 0.3104999999999998 9.878984619140628 0.35024999999999984 Q 9.848984619140627 0.3899999999999998 9.834734619140628 0.4402499999999998 Q 9.820484619140627 0.4904999999999998 9.820484619140627 0.5429999999999998 M 10.744506591796878 1.0739999999999998 L 10.744506591796878 0.008999999999999897 L 11.037006591796878 0.008999999999999897 L 11.037006591796878 0.8189999999999998 L 11.520006591796879 0.8189999999999998 L 11.520006591796879 1.0739999999999998 L 10.744506591796878 1.0739999999999998 M 12.085560058593753 1.0829999999999997 Q 11.958060058593754 1.0829999999999997 11.866560058593754 1.041 Q 11.775060058593754 0.9989999999999999 11.717310058593753 0.9254999999999999 Q 11.659560058593753 0.8519999999999999 11.632560058593754 0.7567499999999998 Q 11.605560058593753 0.6614999999999998 11.605560058593753 0.5564999999999999 L 11.605560058593753 0.008999999999999897 L 11.898060058593753 0.008999999999999897 L 11.898060058593753 0.5564999999999999 Q 11.898060058593753 0.6089999999999998 11.908560058593753 0.6569999999999998 Q 11.919060058593754 0.7049999999999998 11.941560058593753 0.7424999999999998 Q 11.964060058593754 0.7799999999999998 11.999310058593753 0.8017499999999999 Q 12.034560058593753 0.8234999999999999 12.085560058593753 0.8234999999999999 Q 12.138060058593753 0.8234999999999999 12.174060058593753 0.8017499999999999 Q 12.210060058593754 0.7799999999999998 12.231810058593753 0.7417499999999999 Q 12.253560058593754 0.7034999999999998 12.264060058593753 0.6554999999999999 Q 12.274560058593753 0.6074999999999998 12.274560058593753 0.5564999999999999 L 12.274560058593753 0.008999999999999897 L 12.567060058593754 0.008999999999999897 L 12.567060058593754 0.5564999999999999 Q 12.567060058593754 0.6674999999999998 12.537810058593752 0.7634999999999998 Q 12.508560058593753 0.8594999999999998 12.450060058593753 0.9314999999999998 Q 12.391560058593754 1.0034999999999998 12.300810058593754 1.0432499999999998 Q 12.210060058593754 1.0829999999999997 12.085560058593753 1.0829999999999997 M 13.579531494140628 0.2639999999999998 L 13.273531494140629 0.2639999999999998 L 13.273531494140629 1.0739999999999998 L 12.981031494140629 1.0739999999999998 L 12.981031494140629 0.2639999999999998 L 12.67353149414063 0.2639999999999998 L 12.67353149414063 0.008999999999999897 L 13.579531494140628 0.008999999999999897 L 13.579531494140628 0.2639999999999998 M 13.70106665039063 1.0739999999999998 L 13.70106665039063 0.008999999999999897 L 13.99356665039063 0.008999999999999897 L 13.99356665039063 1.0739999999999998 L 13.70106665039063 1.0739999999999998 M 14.67159155273438 1.0829999999999997 Q 14.55009155273438 1.0829999999999997 14.45109155273438 1.0372499999999998 Q 14.35209155273438 0.9914999999999998 14.28084155273438 0.9142499999999998 Q 14.20959155273438 0.8369999999999999 14.17134155273438 0.7402499999999999 Q 14.13309155273438 0.6434999999999998 14.13309155273438 0.5399999999999998 Q 14.13309155273438 0.4334999999999999 14.17359155273438 0.3374999999999998 Q 14.21409155273438 0.24149999999999983 14.28684155273438 0.16574999999999984 Q 14.35959155273438 0.08999999999999986 14.45934155273438 0.046499999999999764 Q 14.55909155273438 0.0029999999999998916 14.67759155273438 0.0029999999999998916 Q 14.79909155273438 0.0029999999999998916 14.89809155273438 0.04874999999999985 Q 14.99709155273438 0.0944999999999998 15.06759155273438 0.17249999999999988 Q 15.13809155273438 0.25049999999999983 15.17634155273438 0.34724999999999984 Q 15.21459155273438 0.44399999999999984 15.21459155273438 0.5459999999999998 Q 15.21459155273438 0.6509999999999998 15.17484155273438 0.7469999999999999 Q 15.13509155273438 0.8429999999999999 15.062341552734381 0.9187499999999998 Q 14.98959155273438 0.9944999999999998 14.89059155273438 1.0387499999999998 Q 14.79159155273438 1.0829999999999997 14.67159155273438 1.0829999999999997 M 14.43009155273438 0.5429999999999998 Q 14.43009155273438 0.5969999999999998 14.44509155273438 0.6472499999999999 Q 14.46009155273438 0.6974999999999998 14.49009155273438 0.7372499999999998 Q 14.52009155273438 0.7769999999999999 14.56584155273438 0.8002499999999999 Q 14.61159155273438 0.8234999999999999 14.67459155273438 0.8234999999999999 Q 14.73759155273438 0.8234999999999999 14.78409155273438 0.7994999999999999 Q 14.83059155273438 0.7754999999999999 14.85984155273438 0.7342499999999998 Q 14.88909155273438 0.6929999999999998 14.90334155273438 0.6427499999999998 Q 14.91759155273438 0.5924999999999998 14.91759155273438 0.5399999999999998 Q 14.91759155273438 0.4859999999999999 14.90259155273438 0.4364999999999998 Q 14.88759155273438 0.3869999999999998 14.85759155273438 0.34724999999999984 Q 14.82759155273438 0.3074999999999998 14.781091552734381 0.2849999999999998 Q 14.73459155273438 0.26249999999999984 14.67309155273438 0.26249999999999984 Q 14.61009155273438 0.26249999999999984 14.56434155273438 0.28649999999999987 Q 14.51859155273438 0.3104999999999998 14.48859155273438 0.35024999999999984 Q 14.45859155273438 0.3899999999999998 14.44434155273438 0.4402499999999998 Q 14.43009155273438 0.4904999999999998 14.43009155273438 0.5429999999999998 M 15.64661352539063 0.5504999999999999 L 15.64661352539063 1.0739999999999998 L 15.35411352539063 1.0739999999999998 L 15.35411352539063 0.008999999999999897 L 15.58211352539063 0.008999999999999897 L 16.00961352539063 0.5504999999999999 L 16.00961352539063 0.008999999999999897 L 16.30211352539063 0.008999999999999897 L 16.30211352539063 1.0739999999999998 L 16.06961352539063 1.0739999999999998 L 15.64661352539063 0.5504999999999999 M 17.14515600585938 0.3569999999999999 Q 17.14515600585938 0.3569999999999999 17.11965600585938 0.34199999999999986 Q 17.094156005859382 0.32699999999999985 17.05215600585938 0.3082499999999998 Q 17.010156005859383 0.28949999999999987 16.96065600585938 0.27449999999999986 Q 16.911156005859382 0.25949999999999984 16.86315600585938 0.25949999999999984 Q 16.825656005859383 0.25949999999999984 16.801656005859382 0.27149999999999985 Q 16.77765600585938 0.28349999999999986 16.77765600585938 0.31199999999999983 Q 16.77765600585938 0.33899999999999986 16.801656005859382 0.3554999999999998 Q 16.825656005859383 0.3719999999999998 16.86990600585938 0.38549999999999984 Q 16.914156005859383 0.3989999999999998 16.97565600585938 0.41849999999999987 Q 17.07465600585938 0.4484999999999998 17.14665600585938 0.4874999999999998 Q 17.21865600585938 0.5264999999999999 17.25765600585938 0.5872499999999998 Q 17.296656005859383 0.6479999999999999 17.296656005859383 0.7484999999999998 Q 17.296656005859383 0.8444999999999998 17.26215600585938 0.9097499999999998 Q 17.22765600585938 0.9749999999999999 17.16915600585938 1.0139999999999998 Q 17.110656005859383 1.053 17.03865600585938 1.07025 Q 16.96665600585938 1.0875 16.89165600585938 1.0875 Q 16.815156005859382 1.0875 16.731906005859383 1.0717499999999998 Q 16.64865600585938 1.0559999999999998 16.57065600585938 1.0282499999999999 Q 16.49265600585938 1.0005 16.428156005859382 0.9629999999999999 L 16.55415600585938 0.7064999999999999 Q 16.55415600585938 0.7064999999999999 16.58415600585938 0.7244999999999998 Q 16.614156005859382 0.7424999999999998 16.66365600585938 0.7649999999999999 Q 16.713156005859382 0.7874999999999999 16.77390600585938 0.8054999999999999 Q 16.83465600585938 0.8234999999999999 16.896156005859382 0.8234999999999999 Q 16.94415600585938 0.8234999999999999 16.96290600585938 0.8107499999999999 Q 16.98165600585938 0.7979999999999998 16.98165600585938 0.7769999999999999 Q 16.98165600585938 0.7454999999999998 16.94865600585938 0.7282499999999998 Q 16.915656005859383 0.7109999999999999 16.86240600585938 0.6952499999999998 Q 16.809156005859382 0.6794999999999998 16.74465600585938 0.6584999999999999 Q 16.65165600585938 0.6269999999999998 16.59165600585938 0.5872499999999998 Q 16.531656005859382 0.5474999999999999 16.50315600585938 0.4927499999999998 Q 16.47465600585938 0.43799999999999983 16.47465600585938 0.3599999999999999 Q 16.47465600585938 0.24149999999999983 16.530156005859382 0.1619999999999998 Q 16.58565600585938 0.0824999999999998 16.67640600585938 0.04124999999999979 Q 16.76715600585938 -2.220446049250313e-16 16.87215600585938 -2.220446049250313e-16 Q 16.95015600585938 -2.220446049250313e-16 17.02290600585938 0.018749999999999822 Q 17.095656005859382 0.03749999999999987 17.15940600585938 0.06449999999999978 Q 17.22315600585938 0.0914999999999998 17.271156005859382 0.11549999999999983 L 17.14515600585938 0.3569999999999999" fill="#102036" fill-rule="nonzero"></path></g><g><path d=" M 0.06675 2.1229499999999994 L 0.06675 1.5904499999999995 L 0.11925000000000001 1.5904499999999995 L 0.11925000000000001 2.1229499999999994 L 0.06675 2.1229499999999994 M 0.7319893798828125 1.5904499999999995 L 0.7319893798828125 2.1229499999999994 L 0.6802393798828126 2.1229499999999994 L 0.6802393798828126 1.8739499999999993 L 0.36448937988281255 1.8739499999999993 L 0.36448937988281255 2.1229499999999994 L 0.3119893798828125 2.1229499999999994 L 0.3119893798828125 1.5904499999999995 L 0.36448937988281255 1.5904499999999995 L 0.36448937988281255 1.8274499999999994 L 0.6802393798828126 1.8274499999999994 L 0.6802393798828126 1.5904499999999995 L 0.7319893798828125 1.5904499999999995 M 0.924721435546875 2.1229499999999994 L 0.924721435546875 1.5904499999999995 L 1.149721435546875 1.5904499999999995 Q 1.184221435546875 1.5904499999999995 1.2127214355468752 1.6046999999999993 Q 1.2412214355468751 1.6189499999999994 1.262596435546875 1.6433249999999995 Q 1.283971435546875 1.6676999999999995 1.295596435546875 1.6973249999999993 Q 1.307221435546875 1.7269499999999995 1.307221435546875 1.7576999999999994 Q 1.307221435546875 1.7959499999999995 1.292596435546875 1.8296999999999994 Q 1.277971435546875 1.8634499999999994 1.251346435546875 1.8866999999999994 Q 1.2247214355468752 1.9099499999999994 1.1887214355468751 1.9174499999999994 L 1.319221435546875 2.1229499999999994 L 1.2599714355468752 2.1229499999999994 L 1.134721435546875 1.9264499999999996 L 0.977221435546875 1.9264499999999996 L 0.977221435546875 2.1229499999999994 L 0.924721435546875 2.1229499999999994 M 0.977221435546875 1.8799499999999996 L 1.151221435546875 1.8799499999999996 Q 1.182721435546875 1.8799499999999996 1.2059714355468751 1.8626999999999994 Q 1.2292214355468751 1.8454499999999994 1.241971435546875 1.8173249999999994 Q 1.254721435546875 1.7891999999999995 1.254721435546875 1.7576999999999994 Q 1.254721435546875 1.7254499999999995 1.240096435546875 1.6980749999999993 Q 1.225471435546875 1.6706999999999994 1.2010964355468752 1.6538249999999994 Q 1.1767214355468751 1.6369499999999995 1.1467214355468751 1.6369499999999995 L 0.977221435546875 1.6369499999999995 L 0.977221435546875 1.8799499999999996 M 1.8314827880859377 2.0764499999999995 L 1.8314827880859377 2.1229499999999994 L 1.4737327880859377 2.1229499999999994 L 1.4737327880859377 1.5904499999999995 L 1.8247327880859376 1.5904499999999995 L 1.8247327880859376 1.6369499999999995 L 1.5262327880859377 1.6369499999999995 L 1.5262327880859377 1.8289499999999994 L 1.7864827880859375 1.8289499999999994 L 1.7864827880859375 1.8731999999999995 L 1.5262327880859377 1.8731999999999995 L 1.5262327880859377 2.0764499999999995 L 1.8314827880859377 2.0764499999999995 M 2.2124956054687503 1.5904499999999995 L 2.40299560546875 2.0576999999999996 L 2.59274560546875 1.5904499999999995 L 2.64749560546875 1.5904499999999995 L 2.42699560546875 2.1229499999999994 L 2.37899560546875 2.1229499999999994 L 2.15774560546875 1.5904499999999995 L 2.2124956054687503 1.5904499999999995 M 2.7832576904296875 2.1229499999999994 L 2.7832576904296875 1.5904499999999995 L 2.8357576904296877 1.5904499999999995 L 2.8357576904296877 2.1229499999999994 L 2.7832576904296875 2.1229499999999994 M 3.3397470703125003 1.6901999999999995 Q 3.3284970703125003 1.6774499999999994 3.3134970703125 1.6673249999999995 Q 3.2984970703125 1.6571999999999996 3.2797470703125002 1.6496999999999995 Q 3.2609970703125004 1.6421999999999994 3.2396220703125 1.6376999999999995 Q 3.2182470703125 1.6331999999999995 3.1942470703125 1.6331999999999995 Q 3.1244970703125 1.6331999999999995 3.0918720703125 1.6598249999999994 Q 3.0592470703125003 1.6864499999999993 3.0592470703125003 1.7321999999999995 Q 3.0592470703125003 1.7636999999999994 3.0746220703125 1.7816999999999994 Q 3.0899970703125 1.7996999999999994 3.1229970703125 1.8109499999999994 Q 3.1559970703125 1.8221999999999994 3.2069970703125 1.8341999999999994 Q 3.2639970703125 1.8461999999999994 3.3052470703125003 1.8626999999999994 Q 3.3464970703125 1.8791999999999995 3.3689970703125 1.9073249999999995 Q 3.3914970703125 1.9354499999999994 3.3914970703125 1.9834499999999995 Q 3.3914970703125 2.0201999999999996 3.3772470703125004 2.0471999999999992 Q 3.3629970703125003 2.0741999999999994 3.3374970703125 2.0921999999999996 Q 3.3119970703125 2.1101999999999994 3.2767470703125 2.1188249999999993 Q 3.2414970703125 2.1274499999999996 3.1994970703125003 2.1274499999999996 Q 3.1582470703125 2.1274499999999996 3.1203720703125004 2.1188249999999993 Q 3.0824970703125003 2.1101999999999994 3.0487470703125004 2.0933249999999997 Q 3.0149970703125 2.0764499999999995 2.9857470703125 2.0501999999999994 L 3.0119970703125003 2.0074499999999995 Q 3.0262470703125004 2.0224499999999996 3.0461220703125003 2.0355749999999992 Q 3.0659970703125 2.0486999999999993 3.0903720703125 2.0591999999999993 Q 3.1147470703125 2.0696999999999997 3.1428720703125004 2.0753249999999994 Q 3.1709970703125 2.0809499999999996 3.2009970703125004 2.0809499999999996 Q 3.2647470703125 2.0809499999999996 3.3003720703125 2.0576999999999996 Q 3.3359970703125 2.0344499999999996 3.3359970703125 1.9886999999999995 Q 3.3359970703125 1.9556999999999993 3.3179970703125004 1.9358249999999995 Q 3.2999970703125 1.9159499999999994 3.2639970703125 1.9031999999999996 Q 3.2279970703125 1.8904499999999995 3.1754970703125003 1.8784499999999995 Q 3.1199970703125004 1.8656999999999995 3.0817470703125003 1.8499499999999993 Q 3.0434970703125 1.8341999999999994 3.0243720703125003 1.8083249999999995 Q 3.0052470703125 1.7824499999999994 3.0052470703125 1.7396999999999994 Q 3.0052470703125 1.6901999999999995 3.0296220703125 1.6560749999999995 Q 3.0539970703125 1.6219499999999996 3.0967470703125004 1.6043249999999993 Q 3.1394970703125002 1.5866999999999996 3.1949970703125 1.5866999999999996 Q 3.2302470703125 1.5866999999999996 3.2606220703125004 1.5938249999999994 Q 3.2909970703125 1.6009499999999994 3.3168720703125003 1.6144499999999993 Q 3.3427470703125 1.6279499999999993 3.3652470703125004 1.6481999999999994 L 3.3397470703125003 1.6901999999999995 M 3.5429930419921876 2.1229499999999994 L 3.5429930419921876 1.5904499999999995 L 3.5954930419921878 1.5904499999999995 L 3.5954930419921878 2.1229499999999994 L 3.5429930419921876 2.1229499999999994 M 4.002732421875001 2.1266999999999996 Q 3.9464824218750003 2.1266999999999996 3.9007324218750004 2.1041999999999996 Q 3.8549824218750004 2.0816999999999997 3.821982421875 2.0430749999999995 Q 3.788982421875 2.0044499999999994 3.7709824218750003 1.9560749999999993 Q 3.752982421875 1.9076999999999995 3.752982421875 1.8566999999999996 Q 3.752982421875 1.8034499999999993 3.7717324218750004 1.7550749999999995 Q 3.790482421875 1.7066999999999994 3.824607421875 1.6688249999999996 Q 3.858732421875 1.6309499999999995 3.904482421875 1.6088249999999995 Q 3.9502324218750005 1.5866999999999996 4.003482421875001 1.5866999999999996 Q 4.059732421875 1.5866999999999996 4.105482421875 1.6099499999999995 Q 4.151232421875 1.6331999999999995 4.183857421875 1.6721999999999995 Q 4.216482421875 1.7111999999999994 4.234482421875001 1.7591999999999994 Q 4.252482421875 1.8071999999999995 4.252482421875 1.8574499999999994 Q 4.252482421875 1.9106999999999994 4.2337324218750005 1.9590749999999995 Q 4.214982421875 2.0074499999999995 4.181232421875 2.0453249999999996 Q 4.147482421875 2.0831999999999993 4.101732421875 2.1049499999999997 Q 4.055982421875 2.1266999999999996 4.002732421875001 2.1266999999999996 M 3.8054824218750003 1.8566999999999996 Q 3.8054824218750003 1.9001999999999994 3.8197324218750004 1.9403249999999994 Q 3.833982421875 1.9804499999999994 3.860232421875 2.0115749999999997 Q 3.8864824218750003 2.0426999999999995 3.9228574218750003 2.0610749999999993 Q 3.9592324218750004 2.0794499999999996 4.002732421875001 2.0794499999999996 Q 4.048482421875001 2.0794499999999996 4.084857421875 2.0603249999999993 Q 4.121232421875 2.0411999999999995 4.147107421875 2.0093249999999996 Q 4.172982421875 1.9774499999999995 4.1864824218750005 1.9376999999999995 Q 4.199982421875 1.8979499999999994 4.199982421875 1.8566999999999996 Q 4.199982421875 1.8131999999999995 4.1857324218750005 1.7734499999999995 Q 4.171482421875 1.7336999999999994 4.144857421875 1.7021999999999995 Q 4.118232421875001 1.6706999999999994 4.082232421875 1.6526999999999994 Q 4.0462324218750005 1.6346999999999994 4.002732421875001 1.6346999999999994 Q 3.9577324218750003 1.6346999999999994 3.9213574218750002 1.6534499999999994 Q 3.884982421875 1.6721999999999995 3.859107421875 1.7040749999999996 Q 3.833232421875 1.7359499999999994 3.8193574218750004 1.7756999999999994 Q 3.8054824218750003 1.8154499999999993 3.8054824218750003 1.8566999999999996 M 4.46321484375 1.6871999999999994 L 4.46321484375 2.1229499999999994 L 4.41071484375 2.1229499999999994 L 4.41071484375 1.5904499999999995 L 4.45421484375 1.5904499999999995 L 4.80371484375 2.0344499999999996 L 4.80371484375 1.5911999999999993 L 4.85621484375 1.5911999999999993 L 4.85621484375 2.1229499999999994 L 4.80746484375 2.1229499999999994 L 4.46321484375 1.6871999999999994 M 5.516197998046875 2.1266999999999996 Q 5.453197998046876 2.1266999999999996 5.409697998046875 2.1041999999999996 Q 5.366197998046875 2.0816999999999997 5.340697998046875 2.0438249999999996 Q 5.315197998046875 2.0059499999999995 5.303572998046875 1.9579499999999994 Q 5.291947998046875 1.9099499999999994 5.291947998046875 1.8589499999999994 L 5.291947998046875 1.5904499999999995 L 5.343697998046875 1.5904499999999995 L 5.343697998046875 1.8589499999999994 Q 5.343697998046875 1.9001999999999994 5.352322998046875 1.9399499999999994 Q 5.360947998046876 1.9796999999999993 5.380447998046876 2.0111999999999997 Q 5.399947998046875 2.0426999999999995 5.432947998046875 2.0610749999999993 Q 5.465947998046875 2.0794499999999996 5.515447998046875 2.0794499999999996 Q 5.5664479980468755 2.0794499999999996 5.599822998046875 2.0603249999999993 Q 5.633197998046875 2.0411999999999995 5.652322998046875 2.0096999999999996 Q 5.671447998046875 1.9781999999999995 5.679697998046875 1.9388249999999994 Q 5.687947998046876 1.8994499999999994 5.687947998046876 1.8589499999999994 L 5.687947998046876 1.5904499999999995 L 5.740447998046875 1.5904499999999995 L 5.740447998046875 1.8589499999999994 Q 5.740447998046875 1.9121999999999995 5.728447998046875 1.9609499999999995 Q 5.716447998046875 2.0096999999999996 5.689822998046875 2.0464499999999997 Q 5.663197998046876 2.0831999999999993 5.620447998046875 2.1049499999999997 Q 5.577697998046875 2.1266999999999996 5.516197998046875 2.1266999999999996 M 5.977451660156251 1.6871999999999994 L 5.977451660156251 2.1229499999999994 L 5.924951660156251 2.1229499999999994 L 5.924951660156251 1.5904499999999995 L 5.9684516601562505 1.5904499999999995 L 6.31795166015625 2.0344499999999996 L 6.31795166015625 1.5911999999999993 L 6.370451660156251 1.5911999999999993 L 6.370451660156251 2.1229499999999994 L 6.321701660156251 2.1229499999999994 L 5.977451660156251 1.6871999999999994 M 6.874431152343751 1.6901999999999995 Q 6.863181152343751 1.6774499999999994 6.848181152343751 1.6673249999999995 Q 6.833181152343752 1.6571999999999996 6.814431152343751 1.6496999999999995 Q 6.795681152343751 1.6421999999999994 6.774306152343751 1.6376999999999995 Q 6.752931152343751 1.6331999999999995 6.728931152343751 1.6331999999999995 Q 6.659181152343751 1.6331999999999995 6.626556152343751 1.6598249999999994 Q 6.593931152343751 1.6864499999999993 6.593931152343751 1.7321999999999995 Q 6.593931152343751 1.7636999999999994 6.609306152343751 1.7816999999999994 Q 6.624681152343752 1.7996999999999994 6.657681152343751 1.8109499999999994 Q 6.6906811523437515 1.8221999999999994 6.741681152343752 1.8341999999999994 Q 6.798681152343751 1.8461999999999994 6.839931152343751 1.8626999999999994 Q 6.881181152343752 1.8791999999999995 6.903681152343752 1.9073249999999995 Q 6.9261811523437515 1.9354499999999994 6.9261811523437515 1.9834499999999995 Q 6.9261811523437515 2.0201999999999996 6.911931152343751 2.0471999999999992 Q 6.897681152343751 2.0741999999999994 6.872181152343751 2.0921999999999996 Q 6.846681152343751 2.1101999999999994 6.811431152343752 2.1188249999999993 Q 6.776181152343751 2.1274499999999996 6.734181152343751 2.1274499999999996 Q 6.692931152343752 2.1274499999999996 6.655056152343751 2.1188249999999993 Q 6.617181152343751 2.1101999999999994 6.583431152343751 2.0933249999999997 Q 6.5496811523437515 2.0764499999999995 6.520431152343751 2.0501999999999994 L 6.546681152343751 2.0074499999999995 Q 6.560931152343751 2.0224499999999996 6.580806152343751 2.0355749999999992 Q 6.600681152343752 2.0486999999999993 6.625056152343751 2.0591999999999993 Q 6.649431152343751 2.0696999999999997 6.677556152343751 2.0753249999999994 Q 6.705681152343751 2.0809499999999996 6.735681152343751 2.0809499999999996 Q 6.799431152343751 2.0809499999999996 6.835056152343752 2.0576999999999996 Q 6.870681152343751 2.0344499999999996 6.870681152343751 1.9886999999999995 Q 6.870681152343751 1.9556999999999993 6.852681152343751 1.9358249999999995 Q 6.834681152343752 1.9159499999999994 6.798681152343751 1.9031999999999996 Q 6.762681152343752 1.8904499999999995 6.710181152343751 1.8784499999999995 Q 6.654681152343751 1.8656999999999995 6.616431152343751 1.8499499999999993 Q 6.578181152343752 1.8341999999999994 6.559056152343751 1.8083249999999995 Q 6.539931152343751 1.7824499999999994 6.539931152343751 1.7396999999999994 Q 6.539931152343751 1.6901999999999995 6.564306152343751 1.6560749999999995 Q 6.588681152343751 1.6219499999999996 6.631431152343751 1.6043249999999993 Q 6.674181152343751 1.5866999999999996 6.729681152343751 1.5866999999999996 Q 6.764931152343752 1.5866999999999996 6.795306152343751 1.5938249999999994 Q 6.825681152343751 1.6009499999999994 6.851556152343751 1.6144499999999993 Q 6.8774311523437515 1.6279499999999993 6.899931152343751 1.6481999999999994 L 6.874431152343751 1.6901999999999995 M 7.435427124023439 2.0764499999999995 L 7.435427124023439 2.1229499999999994 L 7.077677124023439 2.1229499999999994 L 7.077677124023439 1.5904499999999995 L 7.428677124023439 1.5904499999999995 L 7.428677124023439 1.6369499999999995 L 7.130177124023439 1.6369499999999995 L 7.130177124023439 1.8289499999999994 L 7.390427124023439 1.8289499999999994 L 7.390427124023439 1.8731999999999995 L 7.130177124023439 1.8731999999999995 L 7.130177124023439 2.0764499999999995 L 7.435427124023439 2.0764499999999995 M 7.5936837158203145 2.1229499999999994 L 7.5936837158203145 1.5904499999999995 L 7.818683715820315 1.5904499999999995 Q 7.853183715820315 1.5904499999999995 7.881683715820315 1.6046999999999993 Q 7.910183715820315 1.6189499999999994 7.931558715820315 1.6433249999999995 Q 7.952933715820315 1.6676999999999995 7.964558715820314 1.6973249999999993 Q 7.976183715820315 1.7269499999999995 7.976183715820315 1.7576999999999994 Q 7.976183715820315 1.7959499999999995 7.961558715820314 1.8296999999999994 Q 7.946933715820315 1.8634499999999994 7.9203087158203145 1.8866999999999994 Q 7.893683715820314 1.9099499999999994 7.857683715820315 1.9174499999999994 L 7.988183715820314 2.1229499999999994 L 7.928933715820315 2.1229499999999994 L 7.8036837158203145 1.9264499999999996 L 7.646183715820315 1.9264499999999996 L 7.646183715820315 2.1229499999999994 L 7.5936837158203145 2.1229499999999994 M 7.646183715820315 1.8799499999999996 L 7.820183715820315 1.8799499999999996 Q 7.8516837158203145 1.8799499999999996 7.8749337158203145 1.8626999999999994 Q 7.8981837158203145 1.8454499999999994 7.910933715820315 1.8173249999999994 Q 7.923683715820315 1.7891999999999995 7.923683715820315 1.7576999999999994 Q 7.923683715820315 1.7254499999999995 7.909058715820315 1.6980749999999993 Q 7.894433715820314 1.6706999999999994 7.870058715820314 1.6538249999999994 Q 7.845683715820314 1.6369499999999995 7.815683715820315 1.6369499999999995 L 7.646183715820315 1.6369499999999995 L 7.646183715820315 1.8799499999999996 M 8.500445068359378 2.0764499999999995 L 8.500445068359378 2.1229499999999994 L 8.142695068359378 2.1229499999999994 L 8.142695068359378 1.5904499999999995 L 8.493695068359377 1.5904499999999995 L 8.493695068359377 1.6369499999999995 L 8.195195068359377 1.6369499999999995 L 8.195195068359377 1.8289499999999994 L 8.455445068359378 1.8289499999999994 L 8.455445068359378 1.8731999999999995 L 8.195195068359377 1.8731999999999995 L 8.195195068359377 2.0764499999999995 L 8.500445068359378 2.0764499999999995 M 8.90920532226563 2.1229499999999994 L 8.90920532226563 1.5904499999999995 L 8.961705322265628 1.5904499999999995 L 8.961705322265628 2.0764499999999995 L 9.269205322265629 2.0764499999999995 L 9.269205322265629 2.1229499999999994 L 8.90920532226563 2.1229499999999994 M 9.598467407226567 2.1266999999999996 Q 9.542217407226566 2.1266999999999996 9.496467407226566 2.1041999999999996 Q 9.450717407226566 2.0816999999999997 9.417717407226567 2.0430749999999995 Q 9.384717407226567 2.0044499999999994 9.366717407226567 1.9560749999999993 Q 9.348717407226566 1.9076999999999995 9.348717407226566 1.8566999999999996 Q 9.348717407226566 1.8034499999999993 9.367467407226567 1.7550749999999995 Q 9.386217407226567 1.7066999999999994 9.420342407226567 1.6688249999999996 Q 9.454467407226566 1.6309499999999995 9.500217407226566 1.6088249999999995 Q 9.545967407226566 1.5866999999999996 9.599217407226567 1.5866999999999996 Q 9.655467407226567 1.5866999999999996 9.701217407226567 1.6099499999999995 Q 9.746967407226567 1.6331999999999995 9.779592407226566 1.6721999999999995 Q 9.812217407226566 1.7111999999999994 9.830217407226566 1.7591999999999994 Q 9.848217407226567 1.8071999999999995 9.848217407226567 1.8574499999999994 Q 9.848217407226567 1.9106999999999994 9.829467407226566 1.9590749999999995 Q 9.810717407226566 2.0074499999999995 9.776967407226566 2.0453249999999996 Q 9.743217407226567 2.0831999999999993 9.697467407226567 2.1049499999999997 Q 9.651717407226567 2.1266999999999996 9.598467407226567 2.1266999999999996 M 9.401217407226566 1.8566999999999996 Q 9.401217407226566 1.9001999999999994 9.415467407226567 1.9403249999999994 Q 9.429717407226567 1.9804499999999994 9.455967407226566 2.0115749999999997 Q 9.482217407226566 2.0426999999999995 9.518592407226567 2.0610749999999993 Q 9.554967407226567 2.0794499999999996 9.598467407226567 2.0794499999999996 Q 9.644217407226567 2.0794499999999996 9.680592407226566 2.0603249999999993 Q 9.716967407226566 2.0411999999999995 9.742842407226567 2.0093249999999996 Q 9.768717407226566 1.9774499999999995 9.782217407226566 1.9376999999999995 Q 9.795717407226567 1.8979499999999994 9.795717407226567 1.8566999999999996 Q 9.795717407226567 1.8131999999999995 9.781467407226566 1.7734499999999995 Q 9.767217407226566 1.7336999999999994 9.740592407226567 1.7021999999999995 Q 9.713967407226567 1.6706999999999994 9.677967407226566 1.6526999999999994 Q 9.641967407226566 1.6346999999999994 9.598467407226567 1.6346999999999994 Q 9.553467407226567 1.6346999999999994 9.517092407226567 1.6534499999999994 Q 9.480717407226567 1.6721999999999995 9.454842407226566 1.7040749999999996 Q 9.428967407226567 1.7359499999999994 9.415092407226567 1.7756999999999994 Q 9.401217407226566 1.8154499999999993 9.401217407226566 1.8566999999999996 M 9.521967407226567 1.5079499999999995 L 9.521967407226567 1.4374499999999995 L 9.565467407226567 1.4374499999999995 L 9.565467407226567 1.5079499999999995 L 9.521967407226567 1.5079499999999995 M 9.633717407226566 1.5079499999999995 L 9.633717407226566 1.4374499999999995 L 9.677217407226566 1.4374499999999995 L 9.677217407226566 1.5079499999999995 L 9.633717407226566 1.5079499999999995 M 10.317699829101567 1.6901999999999995 Q 10.306449829101567 1.6774499999999994 10.291449829101566 1.6673249999999995 Q 10.276449829101567 1.6571999999999996 10.257699829101567 1.6496999999999995 Q 10.238949829101568 1.6421999999999994 10.217574829101567 1.6376999999999995 Q 10.196199829101568 1.6331999999999995 10.172199829101567 1.6331999999999995 Q 10.102449829101568 1.6331999999999995 10.069824829101567 1.6598249999999994 Q 10.037199829101567 1.6864499999999993 10.037199829101567 1.7321999999999995 Q 10.037199829101567 1.7636999999999994 10.052574829101568 1.7816999999999994 Q 10.067949829101567 1.7996999999999994 10.100949829101568 1.8109499999999994 Q 10.133949829101567 1.8221999999999994 10.184949829101567 1.8341999999999994 Q 10.241949829101568 1.8461999999999994 10.283199829101568 1.8626999999999994 Q 10.324449829101567 1.8791999999999995 10.346949829101566 1.9073249999999995 Q 10.369449829101567 1.9354499999999994 10.369449829101567 1.9834499999999995 Q 10.369449829101567 2.0201999999999996 10.355199829101567 2.0471999999999992 Q 10.340949829101566 2.0741999999999994 10.315449829101567 2.0921999999999996 Q 10.289949829101568 2.1101999999999994 10.254699829101567 2.1188249999999993 Q 10.219449829101567 2.1274499999999996 10.177449829101567 2.1274499999999996 Q 10.136199829101567 2.1274499999999996 10.098324829101568 2.1188249999999993 Q 10.060449829101566 2.1101999999999994 10.026699829101567 2.0933249999999997 Q 9.992949829101567 2.0764499999999995 9.963699829101566 2.0501999999999994 L 9.989949829101567 2.0074499999999995 Q 10.004199829101568 2.0224499999999996 10.024074829101567 2.0355749999999992 Q 10.043949829101567 2.0486999999999993 10.068324829101567 2.0591999999999993 Q 10.092699829101567 2.0696999999999997 10.120824829101567 2.0753249999999994 Q 10.148949829101568 2.0809499999999996 10.178949829101567 2.0809499999999996 Q 10.242699829101568 2.0809499999999996 10.278324829101567 2.0576999999999996 Q 10.313949829101567 2.0344499999999996 10.313949829101567 1.9886999999999995 Q 10.313949829101567 1.9556999999999993 10.295949829101566 1.9358249999999995 Q 10.277949829101567 1.9159499999999994 10.241949829101568 1.9031999999999996 Q 10.205949829101566 1.8904499999999995 10.153449829101566 1.8784499999999995 Q 10.097949829101568 1.8656999999999995 10.059699829101566 1.8499499999999993 Q 10.021449829101567 1.8341999999999994 10.002324829101568 1.8083249999999995 Q 9.983199829101567 1.7824499999999994 9.983199829101567 1.7396999999999994 Q 9.983199829101567 1.6901999999999995 10.007574829101568 1.6560749999999995 Q 10.031949829101567 1.6219499999999996 10.074699829101567 1.6043249999999993 Q 10.117449829101567 1.5866999999999996 10.172949829101567 1.5866999999999996 Q 10.208199829101567 1.5866999999999996 10.238574829101568 1.5938249999999994 Q 10.268949829101567 1.6009499999999994 10.294824829101566 1.6144499999999993 Q 10.320699829101567 1.6279499999999993 10.343199829101566 1.6481999999999994 L 10.317699829101567 1.6901999999999995 M 10.737695800781255 2.1266999999999996 Q 10.674695800781254 2.1266999999999996 10.631195800781255 2.1041999999999996 Q 10.587695800781255 2.0816999999999997 10.562195800781256 2.0438249999999996 Q 10.536695800781255 2.0059499999999995 10.525070800781254 1.9579499999999994 Q 10.513445800781255 1.9099499999999994 10.513445800781255 1.8589499999999994 L 10.513445800781255 1.5904499999999995 L 10.565195800781256 1.5904499999999995 L 10.565195800781256 1.8589499999999994 Q 10.565195800781256 1.9001999999999994 10.573820800781254 1.9399499999999994 Q 10.582445800781255 1.9796999999999993 10.601945800781255 2.0111999999999997 Q 10.621445800781254 2.0426999999999995 10.654445800781255 2.0610749999999993 Q 10.687445800781255 2.0794499999999996 10.736945800781255 2.0794499999999996 Q 10.787945800781255 2.0794499999999996 10.821320800781255 2.0603249999999993 Q 10.854695800781254 2.0411999999999995 10.873820800781255 2.0096999999999996 Q 10.892945800781256 1.9781999999999995 10.901195800781254 1.9388249999999994 Q 10.909445800781254 1.8994499999999994 10.909445800781254 1.8589499999999994 L 10.909445800781254 1.5904499999999995 L 10.961945800781255 1.5904499999999995 L 10.961945800781255 1.8589499999999994 Q 10.961945800781255 1.9121999999999995 10.949945800781254 1.9609499999999995 Q 10.937945800781256 2.0096999999999996 10.911320800781255 2.0464499999999997 Q 10.884695800781255 2.0831999999999993 10.841945800781255 2.1049499999999997 Q 10.799195800781256 2.1266999999999996 10.737695800781255 2.1266999999999996 M 11.19894946289063 1.6871999999999994 L 11.19894946289063 2.1229499999999994 L 11.146449462890631 2.1229499999999994 L 11.146449462890631 1.5904499999999995 L 11.189949462890631 1.5904499999999995 L 11.53944946289063 2.0344499999999996 L 11.53944946289063 1.5911999999999993 L 11.59194946289063 1.5911999999999993 L 11.59194946289063 2.1229499999999994 L 11.54319946289063 2.1229499999999994 L 11.19894946289063 1.6871999999999994 M 11.998428955078131 2.1266999999999996 Q 11.94517895507813 2.1266999999999996 11.89942895507813 2.1038249999999996 Q 11.85367895507813 2.0809499999999996 11.819928955078131 2.0419499999999995 Q 11.786178955078132 2.0029499999999993 11.767803955078131 1.9549499999999995 Q 11.74942895507813 1.9069499999999995 11.74942895507813 1.8559499999999995 Q 11.74942895507813 1.8019499999999995 11.767803955078131 1.7535749999999994 Q 11.786178955078132 1.7051999999999994 11.819178955078131 1.6676999999999995 Q 11.85217895507813 1.6301999999999994 11.89717895507813 1.6084499999999995 Q 11.94217895507813 1.5866999999999996 11.99542895507813 1.5866999999999996 Q 12.07417895507813 1.5866999999999996 12.12367895507813 1.6189499999999994 Q 12.17317895507813 1.6511999999999993 12.198678955078131 1.7029499999999995 L 12.158178955078132 1.7299499999999994 Q 12.13267895507813 1.6804499999999996 12.08992895507813 1.6571999999999996 Q 12.047178955078131 1.6339499999999996 11.99467895507813 1.6339499999999996 Q 11.95042895507813 1.6339499999999996 11.914803955078131 1.6526999999999994 Q 11.879178955078132 1.6714499999999994 11.85367895507813 1.7029499999999995 Q 11.828178955078132 1.7344499999999994 11.815053955078131 1.7741999999999996 Q 11.80192895507813 1.8139499999999995 11.80192895507813 1.8566999999999996 Q 11.80192895507813 1.9016999999999995 11.816928955078131 1.9418249999999995 Q 11.831928955078132 1.9819499999999994 11.859678955078131 2.0130749999999993 Q 11.88742895507813 2.0441999999999996 11.923803955078132 2.0618249999999994 Q 11.960178955078131 2.0794499999999996 12.002178955078131 2.0794499999999996 Q 12.050928955078131 2.0794499999999996 12.094428955078131 2.0550749999999995 Q 12.13792895507813 2.0306999999999995 12.17767895507813 1.9796999999999993 L 12.17767895507813 2.0351999999999992 Q 12.101928955078131 2.1266999999999996 11.998428955078131 2.1266999999999996 M 12.16942895507813 1.9016999999999995 L 12.050928955078131 1.9016999999999995 L 12.050928955078131 1.8611999999999995 L 12.21367895507813 1.8611999999999995 L 12.21367895507813 2.1229499999999994 L 12.16942895507813 2.1229499999999994 L 12.16942895507813 1.9016999999999995 M 12.738681518554694 2.0764499999999995 L 12.738681518554694 2.1229499999999994 L 12.380931518554695 2.1229499999999994 L 12.380931518554695 1.5904499999999995 L 12.731931518554694 1.5904499999999995 L 12.731931518554694 1.6369499999999995 L 12.433431518554693 1.6369499999999995 L 12.433431518554693 1.8289499999999994 L 12.693681518554694 1.8289499999999994 L 12.693681518554694 1.8731999999999995 L 12.433431518554693 1.8731999999999995 L 12.433431518554693 2.0764499999999995 L 12.738681518554694 2.0764499999999995 M 12.949438110351569 1.6871999999999994 L 12.949438110351569 2.1229499999999994 L 12.89693811035157 2.1229499999999994 L 12.89693811035157 1.5904499999999995 L 12.94043811035157 1.5904499999999995 L 13.289938110351569 2.0344499999999996 L 13.289938110351569 1.5911999999999993 L 13.34243811035157 1.5911999999999993 L 13.34243811035157 2.1229499999999994 L 13.29368811035157 2.1229499999999994 L 12.949438110351569 1.6871999999999994" fill="#3682ae" fill-rule="nonzero"></path></g><g clip-path="url(#SvgjsClipPath1002)"><g clip-path="url(#SvgjsClipPath10003cf06ce7-10a4-4f27-abd6-eb47697fcad9)"><path d=" M -2.2715033238717424 -0.051647186239377474 L -2.2715033238717424 0.6092602423003752 L -0.40000000000000213 0.6092602423003752 L -0.40000000000000213 -0.051647186239377474 Z M -1.7416420799357004 0.3817945567722753 C -1.7985273557953447 0.38177216980641115 -1.8446301130826264 0.33565126182728383 -1.8446301086774786 0.27876598156248994 C -1.8446301086774786 0.25145185808410236 -1.833779615373782 0.22525644999187988 -1.814465613440047 0.20594244805814482 C -1.7951516115063106 0.18662844612440974 -1.7689562034140893 0.17577795282071354 -1.7416420799357004 0.17577795282071354 C -1.7143279564573128 0.17577795282071354 -1.6881325483650889 0.18662844612440974 -1.6688185464313539 0.20594244805814482 C -1.6495045444976202 0.22525644999187988 -1.638654051193921 0.25145185808410236 -1.638654051193921 0.27876598156249144 C -1.6387434950826485 0.3355879191654793 -1.6848200763081578 0.3816100792320578 -1.7416420799357004 0.3816323709002426 Z M -1.3357719351698765 0.3817945567722753 C -1.3926572110295208 0.38177216980641115 -1.4387599683168024 0.33565126182728383 -1.4387599639116546 0.27876598156248994 C -1.4387375875775552 0.22189653503309298 -1.3926413816993057 0.17580032915482868 -1.3357719351698925 0.17577795282071354 C -1.2788866549050857 0.1757779484155639 -1.232765746925958 0.22188070570284424 -1.2327433599600925 0.27876598156248994 C -1.2328328331335925 0.33560374463115344 -1.2789341016776348 0.381632441323881 -1.335771935169884 0.3816323709002426 Z M -0.9298612439360436 0.3817945567722753 C -0.9867465197956911 0.38177216980641115 -1.0328492770829714 0.33565126182728383 -1.0328492726778231 0.27876598156248994 C -1.0328492726778231 0.25145185808410236 -1.021998779374127 0.22525644999187988 -1.002684777440392 0.20594244805814482 C -0.9833707755066565 0.18662844612440974 -0.9571753674144343 0.17577795282071354 -0.9298612439360467 0.17577795282071354 C -0.902547120457653 0.17577795282071354 -0.8763517123654307 0.18662844612440974 -0.8570377104316957 0.20594244805814482 C -0.8377237084979607 0.22525644999187988 -0.8268732151942628 0.25145185808410236 -0.8268732151942628 0.27876598156249144 C -0.8269626590829899 0.3355879191654793 -0.8730392403084997 0.3816100792320578 -0.929861243936041 0.3816323709002426 Z" fill="#3682ae" transform="matrix(1,0,0,1,0,0)" fill-rule="nonzero"></path></g><g clip-path="url(#SvgjsClipPath10003cf06ce7-10a4-4f27-abd6-eb47697fcad9)"><path d=" M -2.2715033238717424 0.7308996463260973 L -2.2715033238717424 1.3918070748658506 L -0.40000000000000213 1.3918070748658506 L -0.40000000000000213 0.7308996463260973 Z M -1.7416420799357004 1.1643413893377508 C -1.7689562034140867 1.1643413893377508 -1.7951516115063106 1.1534908960340546 -1.814465613440047 1.1341768941003203 C -1.8337796153737793 1.114862892166586 -1.8446301086774786 1.0886674840743626 -1.8446301086774786 1.0613533605959737 C -1.8446301086774786 1.0340392371175853 -1.833779615373782 1.0078438290253635 -1.814465613440047 0.9885298270916278 C -1.7951516115063106 0.9692158251578935 -1.7689562034140893 0.9583653318541965 -1.7416420799357004 0.9583653318541965 C -1.7143279564573128 0.9583653318541965 -1.6881325483650889 0.9692158251578935 -1.6688185464313539 0.9885298270916278 C -1.6495045444976202 1.0078438290253622 -1.638654051193921 1.0340392371175853 -1.638654051193921 1.0613533605959737 C -1.638621765510551 1.0886885534462345 -1.6494580042756466 1.1149152218680152 -1.6687755066467078 1.1342555401867611 C -1.6880930090177717 1.1535958585055064 -1.7143068680190892 1.1644630478081321 -1.7416420799357017 1.1644630287417777 Z M -1.3357719351698765 1.1643413893377508 C -1.3630860586482627 1.1643413893377508 -1.3892814667404867 1.1534908960340546 -1.408595468674223 1.1341768941003203 C -1.4279094706079567 1.114862892166586 -1.4387599639116546 1.0886674840743626 -1.4387599639116546 1.0613533605959737 C -1.4387599639116546 1.0340392371175853 -1.427909470607958 1.0078438290253635 -1.408595468674223 0.9885298270916278 C -1.3892814667404867 0.9692158251578935 -1.3630860586482654 0.9583653318541965 -1.3357719351698765 0.9583653318541965 C -1.2788866549050857 0.9583653274490469 -1.232765746925958 1.0044680847363279 -1.2327433599600925 1.0613533605959729 C -1.2327218417128494 1.0886922852489171 -1.2435671066561107 1.1149188443196814 -1.2628910453049644 1.1342579926801786 C -1.2822149839538155 1.1535971410406751 -1.308433002048532 1.1644630372101976 -1.3357719351698853 1.1644630287417777 Z M -0.9298612439360436 1.1643413893377508 C -0.9571753674144312 1.1643413893377508 -0.9833707755066565 1.1534908960340546 -1.002684777440392 1.1341768941003203 C -1.0219987793741252 1.114862892166586 -1.0328492726778231 1.0886674840743626 -1.0328492726778231 1.0613533605959737 C -1.0328492726778231 1.0340392371175853 -1.021998779374127 1.0078438290253635 -1.002684777440392 0.9885298270916278 C -0.9833707755066565 0.9692158251578935 -0.9571753674144343 0.9583653318541965 -0.9298612439360467 0.9583653318541965 C -0.902547120457653 0.9583653318541965 -0.8763517123654307 0.9692158251578935 -0.8570377104316957 0.9885298270916278 C -0.8377237084979607 1.0078438290253622 -0.8268732151942628 1.0340392371175853 -0.8268732151942628 1.0613533605959737 C -0.8268409295108929 1.0886885534462345 -0.8376771682759885 1.1149152218680152 -0.8569946706470479 1.1342555401867611 C -0.8763121730181131 1.1535958585055064 -0.902526032019431 1.1644630478081321 -0.9298612439360436 1.1644630287417777 Z" fill="#3682ae" transform="matrix(1,0,0,1,0,0)" fill-rule="nonzero"></path></g><g clip-path="url(#SvgjsClipPath10003cf06ce7-10a4-4f27-abd6-eb47697fcad9)"><path d=" M -2.2715033238717424 1.5138924900396664 L -2.2715033238717424 2.17479991857942 L -0.40000000000000213 2.17479991857942 L -0.40000000000000213 1.5138924900396664 Z M -1.7416420799357004 1.9472936865833117 C -1.7689562034140867 1.9472936865833117 -1.7951516115063106 1.9364431932796156 -1.814465613440047 1.9171291913458806 C -1.8337796153737793 1.8978151894121462 -1.8446301086774786 1.8716197813199238 -1.8446301086774786 1.8443056578415347 C -1.8446301086774786 1.8169915343631455 -1.833779615373782 1.7907961262709238 -1.814465613440047 1.771482124337188 C -1.7951516115063106 1.7521681224034538 -1.7689562034140893 1.7413176290997574 -1.7416420799357004 1.7413176290997574 C -1.7143279564573128 1.7413176290997574 -1.6881325483650889 1.7521681224034538 -1.6688185464313539 1.771482124337188 C -1.6495045444976202 1.7907961262709224 -1.638654051193921 1.8169915343631455 -1.638654051193921 1.8443056578415347 C -1.638654051193921 1.8716197813199238 -1.6495045444976189 1.8978151894121453 -1.6688185464313539 1.9171291913458806 C -1.6881325483650889 1.9364431932796156 -1.7143279564573115 1.9472936865833117 -1.7416420799357004 1.9472936865833117 Z M -1.3357719351698765 1.9472936865833117 C -1.3630860586482627 1.9472936865833117 -1.3892814667404867 1.9364431932796156 -1.408595468674223 1.9171291913458806 C -1.4279094706079567 1.8978151894121462 -1.4387599639116546 1.8716197813199238 -1.4387599639116546 1.8443056578415347 C -1.4387599639116546 1.8169915343631455 -1.427909470607958 1.7907961262709238 -1.408595468674223 1.771482124337188 C -1.3892814667404867 1.7521681224034538 -1.3630860586482654 1.7413176290997574 -1.3357719351698765 1.7413176290997574 C -1.2788866549050857 1.7413176246946072 -1.232765746925958 1.7874203819818881 -1.2327433599600925 1.844305657841533 C -1.2327657469259625 1.901190933701186 -1.2788866549050901 1.947293690988465 -1.3357719351698853 1.9472936865833126 Z M -0.9298612439360436 1.9472936865833117 C -0.9571753674144312 1.9472936865833117 -0.9833707755066565 1.9364431932796156 -1.002684777440392 1.9171291913458806 C -1.0219987793741252 1.8978151894121462 -1.0328492726778231 1.8716197813199238 -1.0328492726778231 1.8443056578415347 C -1.0328492726778231 1.8169915343631455 -1.021998779374127 1.7907961262709238 -1.002684777440392 1.771482124337188 C -0.9833707755066565 1.7521681224034538 -0.9571753674144343 1.7413176290997574 -0.9298612439360467 1.7413176290997574 C -0.902547120457653 1.7413176290997574 -0.8763517123654307 1.7521681224034538 -0.8570377104316957 1.771482124337188 C -0.8377237084979607 1.7907961262709224 -0.8268732151942628 1.8169915343631455 -0.8268732151942628 1.8443056578415347 C -0.8268732151942628 1.8716197813199238 -0.8377237084979576 1.8978151894121453 -0.8570377104316957 1.9171291913458806 C -0.8763517123654307 1.9364431932796156 -0.902547120457653 1.9472936865833117 -0.929861243936041 1.9472936865833117 Z" fill="#3682ae" transform="matrix(1,0,0,1,0,0)" fill-rule="nonzero"></path></g><g clip-path="url(#SvgjsClipPath10003cf06ce7-10a4-4f27-abd6-eb47697fcad9)"><path d=" M -2.393102181429456 -0.048484561734709816 C -2.4196195715070634 -0.05067407100717227 -2.4464478178394033 -0.051782341132740044 -2.473586920426476 -0.05180937211141168 C -2.8026476564600533 -0.05194094315236855 -3.1099395608860276 0.11261775276906039 -3.292220109519582 0.3865790399972894 C -3.322103767348994 0.3819774555792523 -3.352282107156599 0.3795518054555148 -3.3825170937746707 0.3793212222237519 C -3.7017305878825093 0.37930565871452865 -3.968352184165547 0.6225662251017222 -3.997525920528721 0.940443792994407 C -4.296391577360689 0.9888732721885087 -4.51605976496896 1.2468498883556853 -4.516236885762406 1.5496139283552202 C -4.516247644376236 1.7134622503001955 -4.451158366300393 1.8706016744201146 -4.335292502522956 1.986452329709843 C -4.219426638745518 2.1023029849995725 -4.062278671836939 2.167371635129066 -3.898430352715828 2.167339368465843 L -2.393102181429456 2.168920680718177 Z" fill="#3682ae" transform="matrix(1,0,0,1,0,0)" fill-rule="nonzero"></path></g></g></g><defs><clipPath id="SvgjsClipPath1002"><path d=" M -4.516236885762406 -0.05180937211141168 h 4.116236885762405 v 2.226568744222823 h -4.116236885762405 Z"></path></clipPath><clipPath id="SvgjsClipPath10003cf06ce7-10a4-4f27-abd6-eb47697fcad9"><path d=" M -4.516236885762406 -0.05180937211141168 L -0.40000000000000036 -0.05180937211141168 L -0.40000000000000036 2.174759372111411 L -4.516236885762406 2.174759372111411 Z"></path></clipPath></defs></svg>